<?xml version="1.0" encoding="iso-8859-1"?>
<!-- Generator: Adobe Illustrator 21.1.0, SVG Export Plug-In . SVG Version: 6.00 Build 0)  -->
<svg version="1.1" id="Layer_1" xmlns="http://www.w3.org/2000/svg" xmlns:xlink="http://www.w3.org/1999/xlink" x="0px" y="0px"
	 viewBox="0 0 90 90" style="enable-background:new 0 0 90 90;" xml:space="preserve">
<g>
	<linearGradient id="SVGID_1_" gradientUnits="userSpaceOnUse" x1="45" y1="0.024" x2="45" y2="90.024">
		<stop  offset="1.006390e-07" style="stop-color:#FFFFFF;stop-opacity:0"/>
		<stop  offset="1" style="stop-color:#F8F9FC"/>
	</linearGradient>
	<circle style="fill:url(#SVGID_1_);" cx="45" cy="45.024" r="45"/>
	<g>
		<g>
			<path style="fill:#ECDEC9;" d="M45.194,23.135h10.348c0,0,2.667,0.328,2.292,2.173c-0.375,1.845-7.709,1.554-9.917,1.845
				C45.708,27.445,45.194,23.135,45.194,23.135z"/>
			<path style="fill:#1D98F8;" d="M42.5,16.07c-2.756,0.311,4.083,6.667,3.5,10.583s-3,12.417-7.333,17.083
				s-7.5,10.083-7.583,13.333s1,11.583,10.833,14h14.417c0,0,9.083-1.25,11.417-9.833s-6.583-17.25-8.083-18.917
				s-5.083-8.667-4.25-15.25c0,0-0.25-4,0.583-5.583C56.833,19.903,63.917,13.653,42.5,16.07z"/>
			<g>
				<g>
					<g>
						<defs>
							
								<rect id="SVGID_2_" x="14.083" y="21.704" transform="matrix(0.7071 -0.7071 0.7071 0.7071 -19.2304 35.648)" width="38.667" height="38.667"/>
						</defs>
						<clipPath id="SVGID_3_">
							<use xlink:href="#SVGID_2_"  style="overflow:visible;"/>
						</clipPath>
						<path style="opacity:0.14;clip-path:url(#SVGID_3_);enable-background:new    ;" d="M42.5,16.07
							c-2.756,0.311,4.083,6.667,3.5,10.583s-3,12.417-7.333,17.083s-7.5,10.083-7.583,13.333s1,11.583,10.833,14h14.417
							c0,0,9.083-1.25,11.417-9.833s-6.583-17.25-8.083-18.917s-5.083-8.667-4.25-15.25c0,0-0.25-4,0.583-5.583
							C56.833,19.903,63.917,13.653,42.5,16.07z"/>
					</g>
				</g>
			</g>
			<path style="fill:#FFC8CF;" d="M45.194,23.135c-2.807,0.52-6.11,1.602-7.694,4.102h-6.75v13c0,0,7-0.25,15.083,1.833
				s14.333,0,14.333,0s1.75-2.167-0.417-3.333c0,0,6.083-0.833,2.667-4.417c0,0,4-3.833-1-5.583c0,0,2.125-2-0.625-3.417
				l-14.829-0.06l-0.2-1.081L45.194,23.135z"/>
			<path style="fill:#1D98F8;" d="M31.806,44.112h-7.028c-1.074,0-1.944-0.87-1.944-1.944V26.139c0-1.074,0.87-1.944,1.944-1.944
				h7.028c1.074,0,1.944,0.87,1.944,1.944v16.028C33.75,43.241,32.88,44.112,31.806,44.112z"/>
		</g>
		<g>
			<path style="fill:#FFFFFF;" d="M54.308,61.424c-0.833,0.791-2.041,1.271-3.623,1.438v2.352h-1.722v-2.33
				c-1.036-0.07-2.016-0.26-2.94-0.567s-1.659-0.7-2.205-1.176l0.945-2.121c0.518,0.42,1.147,0.773,1.89,1.061
				s1.512,0.466,2.31,0.535v-4.2c-0.994-0.237-1.824-0.5-2.488-0.787c-0.665-0.287-1.222-0.707-1.669-1.26
				c-0.448-0.553-0.672-1.284-0.672-2.195c0-1.134,0.413-2.1,1.239-2.897c0.826-0.798,2.023-1.273,3.591-1.428v-2.373h1.722v2.331
				c0.784,0.042,1.55,0.175,2.299,0.398c0.749,0.225,1.403,0.519,1.964,0.882l-0.861,2.121c-1.064-0.615-2.198-0.993-3.402-1.134
				v4.242c1.008,0.238,1.844,0.497,2.509,0.777c0.665,0.279,1.225,0.696,1.68,1.249c0.455,0.554,0.683,1.284,0.683,2.194
				C55.557,59.67,55.14,60.633,54.308,61.424z M47.389,53.16c0.364,0.28,0.889,0.519,1.575,0.714v-3.737
				c-0.714,0.112-1.246,0.336-1.596,0.672c-0.35,0.336-0.525,0.749-0.525,1.238C46.842,52.51,47.024,52.881,47.389,53.16z
				 M52.334,59.922c0.357-0.321,0.536-0.721,0.536-1.196s-0.189-0.857-0.567-1.145c-0.378-0.287-0.917-0.528-1.617-0.725v3.717
				C51.427,60.462,51.977,60.244,52.334,59.922z"/>
		</g>
	</g>
</g>
</svg>
