<?xml version="1.0" encoding="iso-8859-1"?>
<!-- Generator: Adobe Illustrator 21.1.0, SVG Export Plug-In . SVG Version: 6.00 Build 0)  -->
<svg version="1.1" id="Layer_1" xmlns="http://www.w3.org/2000/svg" xmlns:xlink="http://www.w3.org/1999/xlink" x="0px" y="0px"
	 viewBox="0 0 90 90" style="enable-background:new 0 0 90 90;" xml:space="preserve">
<linearGradient id="SVGID_1_" gradientUnits="userSpaceOnUse" x1="45" y1="-0.043" x2="45" y2="89.957">
	<stop  offset="1.006390e-07" style="stop-color:#FFFFFF;stop-opacity:0"/>
	<stop  offset="1" style="stop-color:#F8F9FC"/>
</linearGradient>
<circle style="fill:url(#SVGID_1_);" cx="45" cy="44.957" r="45"/>
<g>
	<path style="fill:none;stroke:#6ED2F0;stroke-width:2;stroke-miterlimit:10;" d="M45.299,24.873c0,0,8.25,12.667-0.833,40.167
		c0,0,11.917-2.25,15.5-2.333c0,0-0.833-28.5,2.917-36.917C62.882,25.79,48.049,25.123,45.299,24.873z"/>
	<ellipse style="fill:#6ED2F0;" cx="54.716" cy="38.907" rx="3.417" ry="7.695"/>
	<path style="fill:none;stroke:#D1CBC9;stroke-width:1.0848;stroke-miterlimit:10;" d="M56.856,21.498c0,0-5.974,24.43-2.989,46.917
		"/>
	<path style="fill:#FFC8CF;" d="M46.366,31.308c-4.132,0.766-8.996,2.358-11.327,6.039h-9.937v19.139c0,0,10.305-0.368,22.206,2.699
		s21.102,0,21.102,0s2.576-3.19-0.613-4.907c0,0,8.956-1.227,3.926-6.502c0,0,5.889-5.643-1.472-8.22c0,0,3.128-2.944-0.92-5.03
		L47.5,34.438l-0.294-1.591L46.366,31.308z"/>
	<path style="fill:#1D98F8;" d="M27.67,60.548h-9.659c-1.079,0-1.962-0.883-1.962-1.962V34.62c0-1.079,0.883-1.962,1.962-1.962
		h9.659c1.079,0,1.962,0.883,1.962,1.962v23.966C29.632,59.665,28.749,60.548,27.67,60.548z"/>
</g>
</svg>
