<?xml version="1.0" encoding="iso-8859-1"?>
<!-- Generator: Adobe Illustrator 21.1.0, SVG Export Plug-In . SVG Version: 6.00 Build 0)  -->
<svg version="1.1" id="Layer_1" xmlns="http://www.w3.org/2000/svg" xmlns:xlink="http://www.w3.org/1999/xlink" x="0px" y="0px"
	 viewBox="0 0 90 90" style="enable-background:new 0 0 90 90;" xml:space="preserve">
<g>
	<circle style="fill:#F9FAFD;" cx="45.001" cy="45.003" r="44.885"/>
	<g>
		<ellipse style="fill:#89F0FA;" cx="43.073" cy="62.324" rx="9.44" ry="9.2"/>
		<ellipse style="fill:#70D4EE;" cx="43.073" cy="62.324" rx="7.357" ry="7.17"/>
		<g>
			<path style="fill:#FFFFFF;" d="M46.271,64.537c-0.33,0.522-0.888,0.932-1.675,1.226l0.287,1.205l-1.076,0.256l-0.28-1.173
				c-0.538,0.098-1.066,0.125-1.584,0.082c-0.518-0.044-0.952-0.145-1.301-0.304l0.279-1.455c0.32,0.136,0.68,0.229,1.078,0.277
				c0.398,0.05,0.795,0.046,1.191-0.012l-0.428-1.797c-0.539,0-1.001-0.034-1.389-0.1c-0.388-0.067-0.734-0.219-1.04-0.452
				c-0.307-0.234-0.517-0.592-0.631-1.072c-0.142-0.596-0.047-1.158,0.286-1.689c0.333-0.53,0.896-0.939,1.692-1.229l-0.285-1.195
				l1.076-0.256l0.28,1.174c0.899-0.139,1.68-0.095,2.341,0.135l-0.222,1.453c-0.612-0.181-1.206-0.236-1.781-0.167l0.437,1.83
				c0.529-0.006,0.986,0.023,1.369,0.087c0.383,0.064,0.728,0.215,1.034,0.448c0.306,0.234,0.516,0.588,0.628,1.062
				C46.698,63.46,46.603,64.015,46.271,64.537z M41.724,61.112c0.164,0.082,0.384,0.132,0.661,0.148l-0.364-1.528
				c-0.257,0.13-0.434,0.279-0.529,0.451c-0.096,0.17-0.122,0.35-0.077,0.535C41.457,60.899,41.56,61.029,41.724,61.112z
				 M44.772,63.923c0.098-0.16,0.126-0.33,0.083-0.51c-0.042-0.179-0.145-0.31-0.305-0.394c-0.159-0.082-0.375-0.138-0.647-0.164
				l0.354,1.486C44.501,64.223,44.673,64.082,44.772,63.923z"/>
		</g>
	</g>
	<g>
		<path style="fill:#F2B4CC;" d="M53.565,26.4c0,0-9.154,0-17.423,2.067s-24.584,6.127-30.785,6.792c0,0,0.295,5.094,6.644,5.684
			c0,0-0.591,1.034-2.067,1.181s1.55,2.879,6.423,2.732c4.872-0.148,5.611-2.436,14.839-5.094s19.637-3.396,22.369-3.839
			S53.565,26.4,53.565,26.4z"/>
		<path style="fill:#FFC9D0;" d="M72.415,29.057c0,0-3.987,0.098-8.071-1.181c-4.085-1.28-12.402-2.805-19.244-1.083
			c-6.841,1.723-14.716,9.105-16.192,10.778c-1.476,1.673-2.953,12.944-2.953,12.944l6.3,11.615c0,0,2.215-0.837,2.608-4.823
			s-2.215-6.447-2.215-7.038c0-0.591,0.541-6.152,2.658-7.924c2.116-1.772,4.872-3.051,7.678-3.248
			c2.805-0.197,11.074,0.738,12.402,0.935s4.577,1.378,2.51,3.199c-2.067,1.821-7.087,7.678-7.432,9.154
			c-0.345,1.476-0.683,5.352,1.237,6.866s1.919-2.916,5.574-5.721c3.654-2.805,3.673-3.507,13.584-5.223l1.556-0.055V29.057z"/>
		<path style="fill:#1D98F8;" d="M82.372,50.909h-9.85c-1.169,0-2.125-0.956-2.125-2.125v-21.81c0-1.169,0.956-2.125,2.125-2.125
			h9.85c1.169,0,2.125,0.956,2.125,2.125v21.81C84.497,49.953,83.541,50.909,82.372,50.909z"/>
	</g>
</g>
</svg>
