<?xml version="1.0" encoding="iso-8859-1"?>
<!-- Generator: Adobe Illustrator 21.1.0, SVG Export Plug-In . SVG Version: 6.00 Build 0)  -->
<svg version="1.1" id="Layer_1" xmlns="http://www.w3.org/2000/svg" xmlns:xlink="http://www.w3.org/1999/xlink" x="0px" y="0px"
	 viewBox="0 0 513.801 78.639" style="enable-background:new 0 0 513.801 78.639;" xml:space="preserve">
<g>
	<path style="fill:#FFFFFF;" d="M5.17,2.509v72.437h17.355V60.957h11.202v13.989h16.716V2.509H5.17z M8.632,5.267h11.161v11.161
		H8.632V5.267z M8.632,19.198h11.161v11.161H8.632V19.198z M9.213,33.128h11.161v11.16H9.213V33.128z M20.407,58.219H9.246V47.058
		h11.161V58.219z M36.558,5.267H47.72v11.161H36.558V5.267z M22.628,5.267H33.79v11.161H22.628V5.267z M22.628,19.198H33.79v11.161
		H22.628V19.198z M33.822,58.219H22.661V47.058h11.161V58.219z M34.37,44.288H23.209v-11.16H34.37V44.288z M36.558,19.198H47.72
		v11.161H36.558V19.198z M47.752,58.219H36.591V47.058h11.161V58.219z M48.3,44.288H37.139v-11.16H48.3V44.288z"/>
	<path style="fill:#FFFFFF;" d="M82.134,45.576c0,0,13.698-5.862,12.885-22.114C94.255,8.166,82.937,3.775,79.371,2.768
		c-0.637-0.18-1.289-0.259-1.951-0.259H50.182v72.437h8.532V46.911h13.495l15.497,28.035h11.957L82.134,45.576z M75.256,38.727
		H55.928V10.954h19.241c0,0,12.015,0.348,12.015,13.495S75.256,38.727,75.256,38.727z"/>
	<polygon style="fill:#FFFFFF;" points="108.945,2.509 109.037,74.946 150.74,74.946 150.74,66.583 120.094,66.593 120.094,41.53 
		150.74,41.508 150.74,33.155 120.098,33.155 120.108,10.867 150.74,10.867 150.74,2.509 	"/>
	<path style="fill:#FFFFFF;" d="M193.663,2.509h-8.881L155.79,74.946h11.231l9.316-22.375h24.291l8.532,22.375h10.796L193.663,2.509
		z M178.253,44.212l10.223-30.927l9.28,30.927H178.253z"/>
	<polygon style="fill:#FFFFFF;" points="228.634,2.509 228.634,74.946 270.424,74.946 270.424,66.53 239.778,66.53 239.778,2.509 	
		"/>
	<path style="fill:#FFFFFF;" d="M323.685,13.326c0,0-22.667-9.276-33.449,9.807c0,0-11.7,26.757,4.857,40.32
		c0,0,15.584,12.624,30.472,0.348l6.878,2.96c0,0-5.299,9.005-19.851,10.361c-14.017,1.306-33.345-10.97-34.564-31.343
		s6.356-29.515,7.836-31.256c1.48-1.741,14.54-20.547,44.148-7.569L323.685,13.326z"/>
	<ellipse style="fill:#FFFFFF;" cx="374.959" cy="39.32" rx="34.884" ry="38.528"/>
	<rect x="423.773" y="2.416" style="fill:#FFFFFF;" width="8.358" height="72.529"/>
	<g>
		<rect x="500.273" y="2.416" style="fill:#FFFFFF;" width="8.358" height="72.529"/>
		<rect x="451.633" y="2.416" style="fill:#FFFFFF;" width="8.358" height="72.529"/>
		<polygon style="fill:#FFFFFF;" points="459.991,2.416 500.273,63.918 500.273,74.946 459.991,17.135 		"/>
	</g>
</g>
</svg>
