<?xml version="1.0" encoding="iso-8859-1"?>
<!-- Generator: Adobe Illustrator 21.1.0, SVG Export Plug-In . SVG Version: 6.00 Build 0)  -->
<svg version="1.1" id="Layer_1" xmlns="http://www.w3.org/2000/svg" xmlns:xlink="http://www.w3.org/1999/xlink" x="0px" y="0px"
	 viewBox="0 0 90 90" style="enable-background:new 0 0 90 90;" xml:space="preserve">
<g>
	<circle style="fill:#F9FAFD;" cx="45" cy="45" r="44.833"/>
	<path style="fill:#F3B5CA;" d="M33.417,29.413c3.748,2.658,2.636,2.965,3.718,4.391s4.077,3.742,5.524,3.819
		c1.3,0.069,4.572,0.541,5.358,0.442c0.787-0.098,7.177-0.688,6.489-1.77C53.818,35.214,33.417,29.413,33.417,29.413z"/>
	<g>
		<polygon style="fill:#6ED4ED;" points="25.459,23.222 59.674,56.479 47.138,69.309 12.924,35.758 		"/>
		<polygon style="fill:#FFFFFF;" points="17.735,33.982 23.439,28.237 23.984,28.679 23.984,29.367 26.639,29.367 26.639,28.605 
			27.45,28.237 54.795,54.697 54.54,55.52 53.701,55.52 53.701,58.322 54.54,58.322 54.826,59.336 49.572,64.452 48.761,64.452 
			48.466,63.484 46.032,63.484 45.885,64.452 45.11,64.562 17.772,37.804 18.012,36.864 18.823,36.864 18.823,34.578 18.012,34.726 
					"/>
		<g>
			<ellipse style="fill:#6ED4ED;" cx="36.412" cy="46.732" rx="6.203" ry="6.046"/>
			<ellipse style="fill:#70D4EE;" cx="36.412" cy="46.732" rx="4.834" ry="4.712"/>
			<g>
				<path style="fill:#FFFFFF;" d="M38.514,48.186c-0.217,0.343-0.584,0.611-1.102,0.804l0.189,0.792l-0.708,0.169L36.71,49.18
					c-0.353,0.065-0.7,0.082-1.041,0.054s-0.626-0.095-0.855-0.2l0.183-0.955c0.21,0.089,0.447,0.15,0.708,0.182
					c0.262,0.033,0.523,0.03,0.783-0.007l-0.282-1.181c-0.354,0-0.658-0.022-0.913-0.066c-0.255-0.044-0.482-0.143-0.684-0.297
					c-0.201-0.154-0.34-0.389-0.415-0.705c-0.093-0.391-0.031-0.761,0.188-1.11c0.218-0.348,0.589-0.618,1.112-0.807l-0.187-0.785
					l0.708-0.169l0.184,0.771c0.591-0.091,1.104-0.061,1.538,0.089l-0.146,0.954c-0.402-0.118-0.792-0.155-1.17-0.11l0.287,1.203
					c0.348-0.004,0.648,0.016,0.9,0.058c0.252,0.042,0.478,0.14,0.68,0.294c0.201,0.154,0.338,0.386,0.413,0.697
					C38.793,47.478,38.731,47.843,38.514,48.186z M35.526,45.935c0.108,0.054,0.252,0.087,0.434,0.098l-0.24-1.004
					c-0.169,0.085-0.285,0.184-0.348,0.296c-0.063,0.112-0.08,0.23-0.051,0.352C35.35,45.795,35.418,45.881,35.526,45.935z
					 M37.528,47.782c0.065-0.105,0.083-0.217,0.055-0.335c-0.028-0.117-0.095-0.204-0.2-0.259s-0.247-0.09-0.426-0.108l0.233,0.976
					C37.351,47.979,37.463,47.887,37.528,47.782z"/>
			</g>
		</g>
		<circle style="fill:#6ED4ED;" cx="45.517" cy="55.347" r="3.023"/>
		<circle style="fill:#6ED4ED;" cx="27.226" cy="37.404" r="3.023"/>
		<polygon style="fill:#6ED4ED;" points="10.49,35.758 47.31,71.644 46.426,72.529 9.704,36.397 		"/>
	</g>
	<path style="fill:#FFC9D0;" d="M77.843,34.9c-3.343-0.049-8.308-1.622-15.584-5.014s-11.012-4.277-13.961-4.277s-11.7,0-11.7,0
		l-4.481,3.332l5.017,4.863l4.872,0.015l4.424,6.637H27.455c0,0-3.392,0.59-3.933,2.9s1.819,4.572,3.441,4.768
		s20.647,0.885,23.252,1.278s17.55,1.524,18.828,1.77c1.278,0.246,8.8,0.147,8.8,0.147V34.9z"/>
	<path style="fill:#F3E5D7;" d="M29.613,41.903c-0.222,0.244-2.458,1.868,0,3.982c0,0,0.737,0.492,0,1.082s-4.818-0.147-5.063-1.868
		s0.737-2.851,1.77-3.195C27.352,41.559,30.537,40.889,29.613,41.903z"/>
	<path style="fill:#1D98F8;" d="M76.168,30.304h7.765c1.65,0,3,1.35,3,3v20.543c0,1.65-1.35,3-3,3h-7.765c-1.65,0-3-1.35-3-3V33.304
		C73.168,31.654,74.518,30.304,76.168,30.304z"/>
</g>
</svg>
