<?xml version="1.0" encoding="iso-8859-1"?>
<!-- Generator: Adobe Illustrator 21.1.0, SVG Export Plug-In . SVG Version: 6.00 Build 0)  -->
<svg version="1.1" id="Layer_1" xmlns="http://www.w3.org/2000/svg" xmlns:xlink="http://www.w3.org/1999/xlink" x="0px" y="0px"
	 viewBox="0 0 90 90" style="enable-background:new 0 0 90 90;" xml:space="preserve">
<g>
	<linearGradient id="SVGID_1_" gradientUnits="userSpaceOnUse" x1="45.096" y1="0" x2="45.096" y2="90">
		<stop  offset="1.006390e-07" style="stop-color:#FFFFFF;stop-opacity:0"/>
		<stop  offset="1" style="stop-color:#F8F9FC"/>
	</linearGradient>
	<circle style="fill:url(#SVGID_1_);" cx="45.096" cy="45" r="45"/>
	<g>
		<path style="fill:#FFE3E7;" d="M53.146,41.437h-18.25c-1.115,0-2.028,0.912-2.028,2.028v14.194c0,1.115,0.912,2.028,2.028,2.028
			h18.25c1.115,0,2.028-0.912,2.028-2.028V43.465C55.174,42.35,54.261,41.437,53.146,41.437z M46.015,51.101l-0.047,4.461
			c0,1.071-0.876,1.979-1.948,1.979c-1.071,0-1.948-0.908-1.948-1.979l0.047-4.461c0-0.168-0.926-1.819-0.943-3.105
			c-0.031-2.308,1.206-3.308,2.698-3.308s3.063,1.125,2.96,3.335C46.801,48.749,46.015,50.873,46.015,51.101z"/>
		<path style="fill:#1D98F8;" d="M56.396,38.187h-24.75c-1.513,0-2.75,1.237-2.75,2.75v19.25c0,1.513,1.237,2.75,2.75,2.75h24.75
			c1.513,0,2.75-1.237,2.75-2.75v-19.25C59.146,39.425,57.909,38.187,56.396,38.187z M47.146,51.312v4.827
			c0,1.677-1.372,3.049-3.049,3.049c-1.677,0-3.048-1.372-3.048-3.049v-4.827c0-0.263-1.278-2.647-1.278-3.922
			c0-2.336,1.81-4.245,4.146-4.245s4.229,1.893,4.229,4.229C48.146,48.513,47.146,50.956,47.146,51.312z"/>
		<path style="fill:none;stroke:#1D98F8;stroke-width:2;stroke-miterlimit:10;" d="M36.209,38.812v-9.875c0,0,1.438-6.938,7.813-7
			s8.063,5.75,8.063,6.688s0,6.563,0,6.563"/>
	</g>
</g>
</svg>
