<?xml version="1.0" encoding="iso-8859-1"?>
<!-- Generator: Adobe Illustrator 21.1.0, SVG Export Plug-In . SVG Version: 6.00 Build 0)  -->
<svg version="1.1" id="Layer_1" xmlns="http://www.w3.org/2000/svg" xmlns:xlink="http://www.w3.org/1999/xlink" x="0px" y="0px"
	 viewBox="0 0 90 90" style="enable-background:new 0 0 90 90;" xml:space="preserve">
<g>
	<circle style="fill:#F9FAFD;" cx="45" cy="45" r="44.721"/>
	<g>
		<g>
			<ellipse style="fill:#89F0FA;" cx="67.204" cy="45.359" rx="7.33" ry="7.144"/>
			<ellipse style="fill:#70D4EE;" cx="67.204" cy="45.359" rx="5.713" ry="5.568"/>
			<g>
				<path style="fill:#FFFFFF;" d="M69.688,47.078c-0.256,0.405-0.69,0.722-1.301,0.95l0.223,0.936l-0.836,0.199l-0.217-0.911
					c-0.418,0.076-0.828,0.098-1.23,0.063c-0.402-0.033-0.74-0.112-1.01-0.236l0.217-1.13c0.249,0.106,0.528,0.178,0.837,0.216
					c0.31,0.038,0.618,0.036,0.926-0.009l-0.333-1.396c-0.418,0-0.778-0.027-1.079-0.078s-0.571-0.169-0.808-0.351
					c-0.238-0.182-0.401-0.459-0.49-0.833c-0.11-0.463-0.036-0.899,0.222-1.311c0.258-0.412,0.696-0.73,1.314-0.954l-0.221-0.927
					l0.836-0.199l0.217,0.911c0.698-0.108,1.304-0.073,1.818,0.105L68.6,43.252c-0.475-0.14-0.936-0.183-1.383-0.13l0.339,1.421
					c0.411-0.003,0.765,0.02,1.063,0.069c0.297,0.05,0.565,0.165,0.803,0.347c0.237,0.182,0.4,0.457,0.488,0.825
					C70.019,46.241,69.945,46.672,69.688,47.078z M66.157,44.417c0.128,0.064,0.298,0.103,0.514,0.116l-0.283-1.187
					c-0.2,0.101-0.337,0.218-0.411,0.35c-0.074,0.132-0.094,0.271-0.06,0.416C65.95,44.252,66.03,44.354,66.157,44.417z
					 M68.523,46.6c0.076-0.124,0.098-0.256,0.065-0.396c-0.033-0.139-0.112-0.241-0.236-0.306c-0.124-0.064-0.292-0.107-0.503-0.127
					l0.275,1.153C68.314,46.832,68.447,46.725,68.523,46.6z"/>
			</g>
		</g>
		<g>
			
				<ellipse transform="matrix(0.2411 -0.9705 0.9705 0.2411 8.197 76.8353)" style="fill:#89F0FA;" cx="53.228" cy="33.176" rx="6.707" ry="6.882"/>
			
				<ellipse transform="matrix(0.2411 -0.9705 0.9705 0.2411 8.197 76.8353)" style="fill:#70D4EE;" cx="53.228" cy="33.176" rx="5.227" ry="5.364"/>
			<g>
				<path style="fill:#FFFFFF;" d="M55.104,35.307c-0.325,0.311-0.792,0.502-1.401,0.571l-0.009,0.903l-0.807-0.007l0.009-0.879
					c-0.398-0.025-0.776-0.099-1.135-0.221c-0.359-0.122-0.648-0.27-0.867-0.444l0.453-0.98c0.203,0.153,0.441,0.281,0.714,0.386
					c0.274,0.105,0.555,0.172,0.845,0.202l0.013-1.347c-0.381-0.095-0.703-0.201-0.965-0.316c-0.263-0.116-0.482-0.283-0.657-0.502
					c-0.175-0.22-0.261-0.509-0.258-0.87c0.005-0.446,0.17-0.828,0.499-1.145s0.799-0.507,1.413-0.571l0.009-0.895l0.807,0.007
					l-0.009,0.879c0.661,0.06,1.206,0.229,1.633,0.508l-0.413,0.988c-0.401-0.235-0.811-0.379-1.23-0.431l-0.013,1.371
					c0.376,0.09,0.693,0.191,0.953,0.303c0.26,0.113,0.478,0.279,0.653,0.498c0.175,0.22,0.262,0.507,0.259,0.862
					C55.594,34.62,55.429,34.995,55.104,35.307z M52.488,32.084c0.102,0.087,0.248,0.161,0.441,0.222l0.011-1.146
					c-0.205,0.047-0.356,0.122-0.454,0.226c-0.097,0.104-0.147,0.226-0.148,0.366C52.337,31.886,52.387,31.997,52.488,32.084z
					 M54.15,34.608c0.098-0.096,0.148-0.211,0.149-0.345c0.001-0.134-0.048-0.245-0.146-0.332c-0.099-0.087-0.243-0.164-0.43-0.23
					l-0.01,1.113C53.907,34.773,54.053,34.704,54.15,34.608z"/>
			</g>
		</g>
		<g>
			
				<ellipse transform="matrix(0.3302 -0.9439 0.9439 0.3302 22.0529 80.3772)" style="fill:#89F0FA;" cx="67.662" cy="24.65" rx="5.551" ry="5.696"/>
			
				<ellipse transform="matrix(0.3302 -0.9439 0.9439 0.3302 22.0529 80.3772)" style="fill:#70D4EE;" cx="67.662" cy="24.65" rx="4.326" ry="4.439"/>
			<g>
				<path style="fill:#FFFFFF;" d="M69.041,26.544c-0.292,0.232-0.692,0.353-1.198,0.363l-0.076,0.744l-0.664-0.068l0.074-0.724
					c-0.325-0.051-0.632-0.141-0.919-0.269c-0.286-0.128-0.513-0.272-0.68-0.432l0.448-0.773c0.156,0.141,0.342,0.265,0.559,0.373
					c0.217,0.107,0.444,0.184,0.681,0.231l0.114-1.109c-0.307-0.107-0.564-0.219-0.771-0.334c-0.208-0.116-0.375-0.27-0.503-0.465
					c-0.127-0.194-0.176-0.44-0.146-0.737c0.038-0.367,0.205-0.669,0.5-0.905c0.294-0.236,0.698-0.357,1.208-0.362l0.076-0.737
					l0.664,0.068l-0.075,0.724c0.54,0.1,0.976,0.281,1.307,0.543l-0.416,0.783c-0.312-0.224-0.64-0.374-0.98-0.45l-0.116,1.129
					c0.302,0.103,0.556,0.21,0.762,0.323c0.205,0.113,0.372,0.266,0.5,0.461c0.127,0.194,0.176,0.437,0.146,0.73
					C69.498,26.015,69.334,26.313,69.041,26.544z M67.133,23.687c0.077,0.08,0.193,0.152,0.347,0.217l0.097-0.943
					c-0.172,0.023-0.302,0.073-0.391,0.151c-0.088,0.078-0.139,0.175-0.151,0.29C67.023,23.512,67.057,23.607,67.133,23.687z
					 M68.31,25.895c0.088-0.072,0.137-0.162,0.149-0.273c0.011-0.111-0.02-0.206-0.094-0.285c-0.076-0.08-0.188-0.154-0.337-0.223
					l-0.094,0.917C68.096,26.012,68.221,25.966,68.31,25.895z"/>
			</g>
		</g>
	</g>
	<g>
		<path style="fill:#1D98F8;" d="M25.033,76.579h-9.888c-1.65,0-3-1.35-3-3v-21.46c0-1.65,1.35-3,3-3h9.888c1.65,0,3,1.35,3,3v21.46
			C28.033,75.229,26.683,76.579,25.033,76.579z"/>
		<path style="fill:#F0B6CF;" d="M53.728,66.331c4.082-0.588,8.716-0.919,11.327-1.912s5.186-1.581,6.142-2.464
			s2.444-2.207,3.337-4.45s3.231-3.208,4.055-3.2c0.824,0.009,1.729,0.208,1.729,0.208s-2.427,8.581-2.942,9.317
			c-0.515,0.736-3.126,3.531-4.634,4.303c-1.508,0.772-1.324,1.508-5.995,2.096s-10.96,0.625-11.769,0.294
			C54.17,70.192,53.728,66.331,53.728,66.331z"/>
		<path style="fill:#FFC9D0;" d="M62.947,54.513H28.033v17.653c0,0,4.707,0.588,9.415,2.55s10.69,3.236,16.672,3.825
			c5.982,0.588,9.404-1.177,11.224-1.373s5.939-0.49,7.018-0.588c1.079-0.098,3.727-5.394,6.277-7.454s4.217-3.629,4.609-5.1
			s0.981-11.18,1.373-11.965c0,0-3.629-0.49-5.1,2.06c-1.471,2.55-2.06,5.884-2.55,6.963c-0.49,1.079-6.179,5.002-6.179,5.002
			S55.494,66.38,52.65,65.89c-2.844-0.49-5.688-2.942-5.884-3.825c0,0,10.396-0.49,11.671-0.687
			C59.711,61.182,66.282,60.397,62.947,54.513z"/>
		<path style="fill:#F0E4D6;" d="M56.891,54.513c0,0,0.478,2.185,1.398,2.847c0.919,0.662,5.261,0.074,5.592,0.074l-0.08-0.77
			l-0.18-0.676l-0.273-0.693l-0.399-0.782C61.918,54.513,56.891,54.513,56.891,54.513z"/>
	</g>
</g>
</svg>
