<?xml version="1.0" encoding="iso-8859-1"?>
<!-- Generator: Adobe Illustrator 21.1.0, SVG Export Plug-In . SVG Version: 6.00 Build 0)  -->
<svg version="1.1" id="Layer_1" xmlns="http://www.w3.org/2000/svg" xmlns:xlink="http://www.w3.org/1999/xlink" x="0px" y="0px"
	 viewBox="0 0 1453.156 200.448" style="enable-background:new 0 0 1453.156 200.448;" xml:space="preserve">
<g style="display:none;">
	<g style="display:inline;">
		<circle style="fill:none;stroke:#4ACBFF;stroke-width:1.5;stroke-miterlimit:10;" cx="294.438" cy="179.729" r="9.75"/>
		<circle style="fill:#4ACBFF;" cx="294.438" cy="179.729" r="3.417"/>
	</g>
	<g style="display:inline;">
		<circle style="fill:none;stroke:#4ACBFF;stroke-width:1.5;stroke-miterlimit:10;" cx="1043.917" cy="179.729" r="9.75"/>
		<circle style="fill:#4ACBFF;stroke:#4ACBFF;stroke-miterlimit:10;" cx="1043.917" cy="179.729" r="3.417"/>
	</g>
	<g style="display:inline;">
		<circle style="fill:none;stroke:#4ACBFF;stroke-width:1.5;stroke-miterlimit:10;" cx="744.714" cy="179.729" r="9.75"/>
		<circle style="fill:#4ACBFF;" cx="744.714" cy="179.729" r="3.417"/>
	</g>
</g>
<g>
	
		<linearGradient id="SVGID_1_" gradientUnits="userSpaceOnUse" x1="0" y1="69.177" x2="1326.249" y2="69.177" gradientTransform="matrix(1 0 0 1 0 110)">
		<stop  offset="0" style="stop-color:#BAEEFD"/>
		<stop  offset="0.4845" style="stop-color:#BCEEFD;stop-opacity:0.5155"/>
		<stop  offset="0.6591" style="stop-color:#C3F0FD;stop-opacity:0.3409"/>
		<stop  offset="0.7835" style="stop-color:#CEF3FE;stop-opacity:0.2165"/>
		<stop  offset="0.884" style="stop-color:#DFF7FE;stop-opacity:0.116"/>
		<stop  offset="0.9692" style="stop-color:#F5FDFF;stop-opacity:0.0308"/>
		<stop  offset="1" style="stop-color:#FFFFFF;stop-opacity:0"/>
	</linearGradient>
	<rect y="177.198" style="fill:url(#SVGID_1_);" width="1326.249" height="3.958"/>
	<g>
		<circle style="fill:none;stroke:#4ACBFF;stroke-width:1.5;stroke-miterlimit:10;" cx="1194.583" cy="179.729" r="9.75"/>
		<circle style="fill:#4ACBFF;" cx="1194.583" cy="179.729" r="3.417"/>
	</g>
	
		<linearGradient id="SVGID_2_" gradientUnits="userSpaceOnUse" x1="1195.5742" y1="84.8972" x2="1064.666" y2="84.8972" gradientTransform="matrix(1 0 0 1 0 110)">
		<stop  offset="1.006390e-07" style="stop-color:#4ACBFF"/>
		<stop  offset="0.1938" style="stop-color:#4DCCFF;stop-opacity:0.8062"/>
		<stop  offset="0.3444" style="stop-color:#57CFFF;stop-opacity:0.6556"/>
		<stop  offset="0.4805" style="stop-color:#67D3FF;stop-opacity:0.5195"/>
		<stop  offset="0.6081" style="stop-color:#7FDAFF;stop-opacity:0.3919"/>
		<stop  offset="0.7297" style="stop-color:#9DE3FF;stop-opacity:0.2703"/>
		<stop  offset="0.8468" style="stop-color:#C2EDFF;stop-opacity:0.1532"/>
		<stop  offset="0.9582" style="stop-color:#EDFAFF;stop-opacity:0.0418"/>
		<stop  offset="1" style="stop-color:#FFFFFF;stop-opacity:0"/>
	</linearGradient>
	<path style="fill:none;stroke:url(#SVGID_2_);stroke-width:2;stroke-miterlimit:10;" d="M1194.583,189.479
		c0,0-1.333,9.969-9.75,9.969s-120.167,0-120.167,0"/>
	<g>
		<g style="opacity:0.27;">
			<g>
				<g>
					<g>
						<path style="fill:#2099F7;" d="M213.306,117.338h-0.072c-0.898,0-1.632-0.735-1.632-1.632v-3.731
							c0-0.898,0.735-1.632,1.632-1.632h0.072c0.898,0,1.632,0.735,1.632,1.632v3.731
							C214.938,116.603,214.204,117.338,213.306,117.338z"/>
						<path style="fill:#2099F7;" d="M213.306,127.993h-0.072c-0.898,0-1.632-0.735-1.632-1.632v-3.731
							c0-0.898,0.735-1.632,1.632-1.632h0.072c0.898,0,1.632,0.735,1.632,1.632v3.731
							C214.938,127.258,214.204,127.993,213.306,127.993z"/>
						<path style="fill:#2099F7;" d="M213.306,138.647h-0.072c-0.898,0-1.632-0.735-1.632-1.632v-3.731
							c0-0.898,0.735-1.632,1.632-1.632h0.072c0.898,0,1.632,0.735,1.632,1.632v3.731
							C214.938,137.913,214.204,138.647,213.306,138.647z"/>
						<path style="fill:#2099F7;" d="M213.306,149.302h-0.072c-0.898,0-1.632-0.735-1.632-1.632v-3.731
							c0-0.898,0.735-1.632,1.632-1.632h0.072c0.898,0,1.632,0.735,1.632,1.632v3.731
							C214.938,148.568,214.204,149.302,213.306,149.302z"/>
						<path style="fill:#2099F7;" d="M213.306,159.526h-0.072c-0.898,0-1.632-0.735-1.632-1.632v-3.731
							c0-0.898,0.735-1.632,1.632-1.632h0.072c0.898,0,1.632,0.735,1.632,1.632v3.731
							C214.938,158.792,214.204,159.526,213.306,159.526z"/>
					</g>
					<g>
						<path style="fill:#2099F7;" d="M224.104,117.284h-0.072c-0.898,0-1.632-0.735-1.632-1.632v-3.731
							c0-0.898,0.735-1.632,1.632-1.632h0.072c0.898,0,1.632,0.735,1.632,1.632v3.731
							C225.736,116.549,225.002,117.284,224.104,117.284z"/>
						<path style="fill:#2099F7;" d="M224.104,127.939h-0.072c-0.898,0-1.632-0.735-1.632-1.632v-3.731
							c0-0.898,0.735-1.632,1.632-1.632h0.072c0.898,0,1.632,0.735,1.632,1.632v3.731
							C225.736,127.204,225.002,127.939,224.104,127.939z"/>
						<path style="fill:#2099F7;" d="M224.104,138.594h-0.072c-0.898,0-1.632-0.735-1.632-1.632v-3.731
							c0-0.898,0.735-1.632,1.632-1.632h0.072c0.898,0,1.632,0.735,1.632,1.632v3.731
							C225.736,137.859,225.002,138.594,224.104,138.594z"/>
						<path style="fill:#2099F7;" d="M224.104,149.248h-0.072c-0.898,0-1.632-0.735-1.632-1.632v-3.731
							c0-0.898,0.735-1.632,1.632-1.632h0.072c0.898,0,1.632,0.735,1.632,1.632v3.731
							C225.736,148.514,225.002,149.248,224.104,149.248z"/>
						<path style="fill:#2099F7;" d="M224.104,159.473h-0.072c-0.898,0-1.632-0.735-1.632-1.632v-3.731
							c0-0.898,0.735-1.632,1.632-1.632h0.072c0.898,0,1.632,0.735,1.632,1.632v3.731
							C225.736,158.738,225.002,159.473,224.104,159.473z"/>
					</g>
					<g>
						<path style="fill:#2099F7;" d="M234.436,117.284h-0.072c-0.898,0-1.632-0.735-1.632-1.632v-3.731
							c0-0.898,0.735-1.632,1.632-1.632h0.072c0.898,0,1.632,0.735,1.632,1.632v3.731
							C236.068,116.549,235.334,117.284,234.436,117.284z"/>
						<path style="fill:#2099F7;" d="M234.436,127.939h-0.072c-0.898,0-1.632-0.735-1.632-1.632v-3.731
							c0-0.898,0.735-1.632,1.632-1.632h0.072c0.898,0,1.632,0.735,1.632,1.632v3.731
							C236.068,127.204,235.334,127.939,234.436,127.939z"/>
						<path style="fill:#2099F7;" d="M234.436,138.594h-0.072c-0.898,0-1.632-0.735-1.632-1.632v-3.731
							c0-0.898,0.735-1.632,1.632-1.632h0.072c0.898,0,1.632,0.735,1.632,1.632v3.731
							C236.068,137.859,235.334,138.594,234.436,138.594z"/>
						<path style="fill:#2099F7;" d="M234.436,149.248h-0.072c-0.898,0-1.632-0.735-1.632-1.632v-3.731
							c0-0.898,0.735-1.632,1.632-1.632h0.072c0.898,0,1.632,0.735,1.632,1.632v3.731
							C236.068,148.514,235.334,149.248,234.436,149.248z"/>
						<path style="fill:#2099F7;" d="M234.436,159.473h-0.072c-0.898,0-1.632-0.735-1.632-1.632v-3.731
							c0-0.898,0.735-1.632,1.632-1.632h0.072c0.898,0,1.632,0.735,1.632,1.632v3.731
							C236.068,158.738,235.334,159.473,234.436,159.473z"/>
						<path style="fill:#2099F7;" d="M232.732,168.459V164.8c0-0.917,0.751-1.668,1.668-1.668l0,0c0.917,0,1.668,0.751,1.668,1.668"
							/>
					</g>
				</g>
				<path style="fill:#2099F7;" d="M206.597,166.163v-59.315h34.942v59.315h3.695v-59.516c0-1.815-1.485-3.3-3.3-3.3h-35.731
					c-1.815,0-3.3,1.485-3.3,3.3v59.516H206.597z"/>
			</g>
			<g>
				<g>
					<path style="fill:#2099F7;" d="M174.489,89.033h-0.072c-0.898,0-1.632-0.735-1.632-1.632V83.67
						c0-0.898,0.735-1.632,1.632-1.632h0.072c0.898,0,1.632,0.735,1.632,1.632v3.73C176.122,88.298,175.387,89.033,174.489,89.033z"
						/>
					<path style="fill:#2099F7;" d="M174.489,99.687h-0.072c-0.898,0-1.632-0.735-1.632-1.632v-3.731
						c0-0.898,0.735-1.632,1.632-1.632h0.072c0.898,0,1.632,0.735,1.632,1.632v3.731C176.122,98.953,175.387,99.687,174.489,99.687z
						"/>
					<path style="fill:#2099F7;" d="M174.489,110.342h-0.072c-0.898,0-1.632-0.735-1.632-1.632v-3.731
						c0-0.898,0.735-1.632,1.632-1.632h0.072c0.898,0,1.632,0.735,1.632,1.632v3.731
						C176.122,109.608,175.387,110.342,174.489,110.342z"/>
					<path style="fill:#2099F7;" d="M174.489,120.997h-0.072c-0.898,0-1.632-0.735-1.632-1.632v-3.731
						c0-0.898,0.735-1.632,1.632-1.632h0.072c0.898,0,1.632,0.735,1.632,1.632v3.731
						C176.122,120.263,175.387,120.997,174.489,120.997z"/>
					<path style="fill:#2099F7;" d="M174.489,131.221h-0.072c-0.898,0-1.632-0.735-1.632-1.632v-3.731
						c0-0.898,0.735-1.632,1.632-1.632h0.072c0.898,0,1.632,0.735,1.632,1.632v3.731
						C176.122,130.487,175.387,131.221,174.489,131.221z"/>
					<path style="fill:#2099F7;" d="M174.489,141.876h-0.072c-0.898,0-1.632-0.735-1.632-1.632v-3.731
						c0-0.898,0.735-1.632,1.632-1.632h0.072c0.898,0,1.632,0.735,1.632,1.632v3.731
						C176.122,141.142,175.387,141.876,174.489,141.876z"/>
					<path style="fill:#2099F7;" d="M174.489,152.531h-0.072c-0.898,0-1.632-0.735-1.632-1.632v-3.731
						c0-0.898,0.735-1.632,1.632-1.632h0.072c0.898,0,1.632,0.735,1.632,1.632v3.731
						C176.122,151.796,175.387,152.531,174.489,152.531z"/>
					<path style="fill:#2099F7;" d="M174.489,163.186h-0.072c-0.898,0-1.632-0.735-1.632-1.632v-3.731
						c0-0.898,0.735-1.632,1.632-1.632h0.072c0.898,0,1.632,0.735,1.632,1.632v3.731
						C176.122,162.451,175.387,163.186,174.489,163.186z"/>
					<path style="fill:#2099F7;" d="M174.489,173.76h-0.072c-0.898,0-1.632-0.735-1.632-1.632v-3.731
						c0-0.898,0.735-1.632,1.632-1.632h0.072c0.898,0,1.632,0.735,1.632,1.632v3.731C176.122,173.025,175.387,173.76,174.489,173.76
						z"/>
				</g>
				<g>
					<path style="fill:#2099F7;" d="M185.144,89.033h-0.072c-0.898,0-1.632-0.735-1.632-1.632V83.67
						c0-0.898,0.735-1.632,1.632-1.632h0.072c0.898,0,1.632,0.735,1.632,1.632v3.73C186.776,88.298,186.042,89.033,185.144,89.033z"
						/>
					<path style="fill:#2099F7;" d="M185.144,99.687h-0.072c-0.898,0-1.632-0.735-1.632-1.632v-3.731
						c0-0.898,0.735-1.632,1.632-1.632h0.072c0.898,0,1.632,0.735,1.632,1.632v3.731C186.776,98.953,186.042,99.687,185.144,99.687z
						"/>
					<path style="fill:#2099F7;" d="M185.144,110.342h-0.072c-0.898,0-1.632-0.735-1.632-1.632v-3.731
						c0-0.898,0.735-1.632,1.632-1.632h0.072c0.898,0,1.632,0.735,1.632,1.632v3.731
						C186.776,109.608,186.042,110.342,185.144,110.342z"/>
					<path style="fill:#2099F7;" d="M185.144,120.997h-0.072c-0.898,0-1.632-0.735-1.632-1.632v-3.731
						c0-0.898,0.735-1.632,1.632-1.632h0.072c0.898,0,1.632,0.735,1.632,1.632v3.731
						C186.776,120.263,186.042,120.997,185.144,120.997z"/>
					<path style="fill:#2099F7;" d="M185.144,131.221h-0.072c-0.898,0-1.632-0.735-1.632-1.632v-3.731
						c0-0.898,0.735-1.632,1.632-1.632h0.072c0.898,0,1.632,0.735,1.632,1.632v3.731
						C186.776,130.487,186.042,131.221,185.144,131.221z"/>
					<path style="fill:#2099F7;" d="M185.144,141.876h-0.072c-0.898,0-1.632-0.735-1.632-1.632v-3.731
						c0-0.898,0.735-1.632,1.632-1.632h0.072c0.898,0,1.632,0.735,1.632,1.632v3.731
						C186.776,141.142,186.042,141.876,185.144,141.876z"/>
					<path style="fill:#2099F7;" d="M185.144,152.531h-0.072c-0.898,0-1.632-0.735-1.632-1.632v-3.731
						c0-0.898,0.735-1.632,1.632-1.632h0.072c0.898,0,1.632,0.735,1.632,1.632v3.731
						C186.776,151.796,186.042,152.531,185.144,152.531z"/>
					<path style="fill:#2099F7;" d="M185.144,163.186h-0.072c-0.898,0-1.632-0.735-1.632-1.632v-3.731
						c0-0.898,0.735-1.632,1.632-1.632h0.072c0.898,0,1.632,0.735,1.632,1.632v3.731
						C186.776,162.451,186.042,163.186,185.144,163.186z"/>
				</g>
				<g>
					<path style="fill:#2099F7;" d="M195.799,89.033h-0.072c-0.898,0-1.632-0.735-1.632-1.632V83.67
						c0-0.898,0.735-1.632,1.632-1.632h0.072c0.898,0,1.632,0.735,1.632,1.632v3.73C197.431,88.298,196.697,89.033,195.799,89.033z"
						/>
					<path style="fill:#2099F7;" d="M195.799,99.687h-0.072c-0.898,0-1.632-0.735-1.632-1.632v-3.731
						c0-0.898,0.735-1.632,1.632-1.632h0.072c0.898,0,1.632,0.735,1.632,1.632v3.731C197.431,98.953,196.697,99.687,195.799,99.687z
						"/>
					<path style="fill:#2099F7;" d="M195.799,110.342h-0.072c-0.898,0-1.632-0.735-1.632-1.632v-3.731
						c0-0.898,0.735-1.632,1.632-1.632h0.072c0.898,0,1.632,0.735,1.632,1.632v3.731
						C197.431,109.608,196.697,110.342,195.799,110.342z"/>
					<path style="fill:#2099F7;" d="M195.799,120.997h-0.072c-0.898,0-1.632-0.735-1.632-1.632v-3.731
						c0-0.898,0.735-1.632,1.632-1.632h0.072c0.898,0,1.632,0.735,1.632,1.632v3.731
						C197.431,120.263,196.697,120.997,195.799,120.997z"/>
					<path style="fill:#2099F7;" d="M195.799,131.221h-0.072c-0.898,0-1.632-0.735-1.632-1.632v-3.731
						c0-0.898,0.735-1.632,1.632-1.632h0.072c0.898,0,1.632,0.735,1.632,1.632v3.731
						C197.431,130.487,196.697,131.221,195.799,131.221z"/>
					<path style="fill:#2099F7;" d="M195.799,141.876h-0.072c-0.898,0-1.632-0.735-1.632-1.632v-3.731
						c0-0.898,0.735-1.632,1.632-1.632h0.072c0.898,0,1.632,0.735,1.632,1.632v3.731
						C197.431,141.142,196.697,141.876,195.799,141.876z"/>
					<path style="fill:#2099F7;" d="M195.799,152.531h-0.072c-0.898,0-1.632-0.735-1.632-1.632v-3.731
						c0-0.898,0.735-1.632,1.632-1.632h0.072c0.898,0,1.632,0.735,1.632,1.632v3.731
						C197.431,151.796,196.697,152.531,195.799,152.531z"/>
				</g>
				<g>
					<path style="fill:#2099F7;" d="M206.382,89.033h-0.072c-0.898,0-1.632-0.735-1.632-1.632V83.67
						c0-0.898,0.735-1.632,1.632-1.632h0.072c0.898,0,1.632,0.735,1.632,1.632v3.73C208.014,88.298,207.28,89.033,206.382,89.033z"
						/>
					<path style="fill:#2099F7;" d="M206.382,99.687h-0.072c-0.898,0-1.632-0.735-1.632-1.632v-3.731
						c0-0.898,0.735-1.632,1.632-1.632h0.072c0.898,0,1.632,0.735,1.632,1.632v3.731C208.014,98.953,207.28,99.687,206.382,99.687z"
						/>
				</g>
				<path style="fill:#2099F7;" d="M212.391,178.576h-43.48V78.234h44.449v26.547h3.48V78.163c0-1.625-1.317-2.942-2.942-2.942
					h-45.346c-1.625,0-2.942,1.317-2.942,2.942v98.871c0,1.625,1.317,2.942,2.942,2.942h43.839V178.576z"/>
			</g>
			<g>
				<path style="fill:#2099F7;" d="M252.033,177.284h7.283c1.006,0,1.83,0.823,1.83,1.83l0,0c0,1.006-0.823,1.83-1.83,1.83h-102.35
					c-1.006,0-1.83-0.823-1.83-1.83l0,0c0-1.006,0.823-1.83,1.83-1.83H252.033"/>
				<path style="fill:#2099F7;" d="M211.638,161.464c-2.584,0-4.896,1.131-6.489,2.918c-1.41-4.665-5.903-8.077-11.232-8.077
					c-6.458,0-11.694,5.01-11.694,11.19c0,0.011,0.003,0.023,0.003,0.034c-0.277-0.023-0.556-0.038-0.839-0.038
					c-5.419,0-9.814,4.314-9.838,9.643c1.204,0.448,2.58,1.067,2.959,0.688c0.099-0.106,0.199-0.207,0.299-0.31
					c0.076-3.972,3.364-7.17,7.417-7.17c0.457,0,1.209,0.082,1.828,0.155c0.531,0.062,0.997-0.347,1.007-0.881
					c0.014-0.744,0.058-1.621,0.05-1.624c0.181-4.672,3.882-8.305,8.808-8.305c5.042,0,9.102,3.911,9.129,8.735
					c0.009,1.691,1.839,1.786,2.492,0.252c1.272-2.247,3.675-3.768,6.441-3.768c1.864,0,3.564,0.692,4.866,1.829
					c0.536-0.63,1.337-0.886,2.312-0.949C217.644,163.203,214.847,161.464,211.638,161.464z"/>
				<path style="fill:#2099F7;" d="M214.292,173.894c0-4.151,3.365-7.516,7.516-7.516c3.006,0,5.614,2.081,6.795,4.32
					c0,0,1.391,3.875,3.523,0.765c1.463-2.752,4.357-4.628,7.691-4.628c4.81,0,8.709,3.899,8.709,8.709
					c0,0.635-0.072,1.252-0.201,1.848c1.187,0,2.376,0,3.568,0c0.091-0.603,0.139-1.219,0.139-1.848
					c0-6.746-5.469-12.215-12.215-12.215c-3.774,0-7.147,1.712-9.387,4.401c-1.923-2.685-5.067-4.437-8.622-4.437
					c-5.855,0-10.601,4.746-10.601,10.601c0,1.226,0.211,2.402,0.593,3.498c1.121,0,2.242,0,3.358,0
					C214.608,176.347,214.292,175.158,214.292,173.894z"/>
			</g>
		</g>
		<g>
			<rect x="215.75" y="153.448" style="fill:#2099F7;" width="30.167" height="2.917"/>
			<rect x="248.833" y="153.532" style="fill:#2099F7;" width="2.833" height="2.833"/>
			<g>
				<path style="fill:#2099F7;" d="M220.948,139.511v10h10v-10H220.948z M230.104,148.667h-8.313v-8.313h8.313V148.667z"/>
				<path style="fill:#2099F7;" d="M234.948,139.511v10h10v-10H234.948z M244.104,148.667h-8.313v-8.313h8.313V148.667z"/>
				<path style="fill:#2099F7;" d="M248.948,139.511v10h10v-10H248.948z M258.104,148.667h-8.312v-8.313h8.312V148.667z"/>
				<path style="fill:#2099F7;" d="M262.948,139.511v10h10v-10H262.948z M272.104,148.667h-8.313v-8.313h8.313V148.667z"/>
			</g>
			<path style="fill:#2099F7;" d="M276.865,131.511h-5.115v1.527h5.211c3.651,0,6.704,2.662,7.331,6.14h-5.428
				c-1.656,0-3.01,1.355-3.01,3.01v11.354c0,1.65,1.35,3,3,3h5.563v5.392h-67.75v-21.441c0-4.1,3.355-7.455,7.455-7.455H263v-1.527
				h-38.865c-4.978,0-9.052,4.073-9.052,9.052v22.899h70.833v-22.899C285.917,135.584,281.843,131.511,276.865,131.511z
				 M277.854,153.037v-10.005c0-0.84,0.681-1.521,1.521-1.521h5.042v13.031h-5.057C278.528,154.542,277.854,153.868,277.854,153.037
				z"/>
			<rect x="261.901" y="134.511" style="fill:#2099F7;" width="2.984" height="1.521"/>
			<g>
				<path style="fill:none;stroke:#2099F7;stroke-width:3;stroke-miterlimit:10;" d="M276.846,171.448
					c0,3.67-3.118,6.458-6.788,6.458c-3.67,0-6.504-2.788-6.504-6.458c0-3.67,2.833-6.833,6.504-6.833
					C273.728,164.615,276.846,167.778,276.846,171.448z"/>
				<path style="fill:none;stroke:#2099F7;stroke-width:3;stroke-miterlimit:10;" d="M238.196,171.448
					c0,3.67-2.972,6.458-6.642,6.458s-6.762-2.788-6.762-6.458c0-3.67,3.091-6.833,6.762-6.833
					C235.224,164.615,238.196,167.778,238.196,171.448z"/>
			</g>
			<path style="fill:none;stroke:#2099F7;stroke-width:2.6255;stroke-miterlimit:10;" d="M282.994,163.615h-64.917
				c-2.154,0-3.917,1.763-3.917,3.917s1.763,3.917,3.917,3.917h6.715c0-3.67,3.091-6.833,6.762-6.833
				c3.67,0,6.642,3.195,6.642,6.833h25.359c0-3.67,2.833-6.833,6.504-6.833s6.788,3.163,6.788,6.833h6.148
				c2.154,0,3.917-1.763,3.917-3.917S285.148,163.615,282.994,163.615z"/>
		</g>
	</g>
	<g>
		<g style="opacity:0.11;">
			<path style="fill:#C5D8EF;" d="M420.333,126.675L407,99.508l-0.046-4.792c0.007-0.224,0.367-3.918,0.367-3.918
				c0.887-4.54,6.126-20.91,27.922-20.91l0,0c0,0,21.236-1.724,28.243,23.322l-0.07,5.423l-14.167,28.542l-1.5-0.583
				c0,0,13.75-26.333,14.083-27.583s0.833-5.75-2.333-12.75s-11.571-13.912-18.958-14.792c-10.077-1.2-16.99,0.859-21.302,4.234
				c-4.741,3.711-9.103,8.074-10.573,16.141l-0.25,7.417l13.167,26.5L420.333,126.675z"/>
			<path style="fill:#E0F0FE;" d="M435.221,71.124c0,0,4.571,4.134,5.196,11.759s0.751,12.306,1.292,14.417
				c0.54,2.11,1.399,4.431,4.2,4.757c2.8,0.326,4.454-2.952,4.677-3.538s1.169-2.886,0-8.886S445.025,71.989,435.221,71.124z"/>
			<path style="fill:#E0F0FE;" d="M434.866,71.124c0,0-4.571,4.134-5.196,11.759s-0.751,12.306-1.292,14.417
				c-0.54,2.11-1.399,4.431-4.2,4.757c-2.8,0.326-4.454-2.952-4.677-3.538s-1.169-2.886,0-8.886S425.062,71.989,434.866,71.124z"/>
			<path style="fill:none;stroke:#C5D8EF;stroke-miterlimit:10;" d="M407.417,98.883c0,0,4.443,6.742,9.183,0.492
				c0,0,1.755-2.461,2.025-4.867c0,0,0.148,3.666,1.417,5.656c1.183,1.856,3.932,2.649,6.035,1.046
				c2.267-1.729,3.007-6.702,3.007-6.702s-0.302,7.563,5.863,7.563c5.938,0,5.971-7.563,5.971-7.563s0.42,7.563,5.319,7.563
				c4.771,0,5.306-7.563,5.306-7.563s0.541,7.563,6.758,7.563c6.112,0,4.284-9.271,4.284-9.271s-5.354-23.979-29.625-22.417
				C406.152,72.109,407.417,98.883,407.417,98.883z"/>
			
				<line style="fill:none;stroke:#C5D8EF;stroke-width:1.48;stroke-miterlimit:10;" x1="424.179" y1="102.057" x2="428.479" y2="126.508"/>
			
				<line style="fill:none;stroke:#C5D8EF;stroke-width:1.48;stroke-miterlimit:10;" x1="445.797" y1="102.057" x2="441.497" y2="126.508"/>
		</g>
		<g style="opacity:0.25;">
			<path style="fill:#C5D8EF;" d="M419.686,91.115l-13.333-27.167l-0.046-4.792c0.007-0.224,0.367-3.918,0.367-3.918
				c0.887-4.54,6.125-20.91,27.922-20.91l0,0c0,0,21.236-1.724,28.243,23.322l-0.07,5.423l-14.167,28.542l-1.5-0.583
				c0,0,13.75-26.333,14.083-27.583s0.833-5.75-2.333-12.75s-11.571-13.912-18.958-14.792c-10.077-1.2-16.99,0.859-21.302,4.234
				c-4.741,3.711-9.103,8.074-10.573,16.141l-0.25,7.417l13.167,26.5L419.686,91.115z"/>
			<path style="fill:#E0F0FE;" d="M434.573,35.564c0,0,4.571,4.134,5.196,11.759s0.751,12.306,1.292,14.417
				c0.54,2.11,1.399,4.431,4.2,4.757c2.8,0.326,4.454-2.952,4.677-3.538c0.223-0.586,1.169-2.886,0-8.886
				S444.377,36.429,434.573,35.564z"/>
			<path style="fill:#E0F0FE;" d="M434.219,35.564c0,0-4.571,4.134-5.196,11.759s-0.751,12.306-1.292,14.417
				c-0.54,2.11-1.399,4.431-4.2,4.757c-2.8,0.326-4.454-2.952-4.677-3.538c-0.223-0.586-1.169-2.886,0-8.886
				C420.023,48.073,424.415,36.429,434.219,35.564z"/>
			<path style="fill:none;stroke:#C5D8EF;stroke-miterlimit:10;" d="M406.769,63.323c0,0,4.443,6.742,9.183,0.492
				c0,0,1.755-2.461,2.025-4.867c0,0,0.148,3.666,1.417,5.656c1.183,1.856,3.932,2.649,6.035,1.046
				c2.267-1.729,3.007-6.702,3.007-6.702s-0.302,7.563,5.863,7.563c5.938,0,5.971-7.563,5.971-7.563s0.42,7.563,5.319,7.563
				c4.771,0,5.306-7.563,5.306-7.563s0.541,7.563,6.758,7.563c6.112,0,4.284-9.271,4.284-9.271s-5.354-23.979-29.625-22.417
				C405.505,36.549,406.769,63.323,406.769,63.323z"/>
			
				<line style="fill:none;stroke:#C5D8EF;stroke-width:1.48;stroke-miterlimit:10;" x1="423.532" y1="66.497" x2="427.832" y2="90.948"/>
			
				<line style="fill:none;stroke:#C5D8EF;stroke-width:1.48;stroke-miterlimit:10;" x1="445.15" y1="66.497" x2="440.85" y2="90.948"/>
		</g>
		<g>
			<path style="fill:#C5D8EF;" d="M420.333,56.865L407,29.698l-0.046-4.792c0.007-0.224,0.367-3.918,0.367-3.918
				c0.887-4.54,6.126-20.91,27.922-20.91l0,0c0,0,21.236-1.724,28.243,23.322l-0.07,5.423L449.25,57.365l-1.5-0.583
				c0,0,13.75-26.333,14.083-27.583s0.833-5.75-2.333-12.75S447.929,2.536,440.542,1.657c-10.077-1.2-16.99,0.859-21.302,4.234
				c-4.741,3.711-9.103,8.074-10.573,16.141l-0.25,7.417l13.167,26.5L420.333,56.865z"/>
			<path style="fill:#E0F0FE;" d="M435.221,1.314c0,0,4.571,4.134,5.196,11.759s0.751,12.306,1.292,14.417s1.399,4.431,4.2,4.757
				c2.8,0.326,4.454-2.952,4.677-3.538s1.169-2.886,0-8.886S445.025,2.179,435.221,1.314z"/>
			<path style="fill:#E0F0FE;" d="M434.866,1.314c0,0-4.571,4.134-5.196,11.759s-0.751,12.306-1.292,14.417s-1.399,4.431-4.2,4.757
				c-2.8,0.326-4.454-2.952-4.677-3.538s-1.169-2.886,0-8.886S425.062,2.179,434.866,1.314z"/>
			<path style="fill:none;stroke:#C5D8EF;stroke-miterlimit:10;" d="M407.417,29.073c0,0,4.443,6.742,9.183,0.492
				c0,0,1.755-2.461,2.025-4.867c0,0,0.148,3.666,1.417,5.656c1.183,1.856,3.932,2.649,6.035,1.046
				c2.267-1.729,3.007-6.702,3.007-6.702s-0.302,7.563,5.863,7.563c5.938,0,5.971-7.563,5.971-7.563s0.42,7.563,5.319,7.563
				c4.771,0,5.306-7.563,5.306-7.563s0.541,7.563,6.758,7.563c6.112,0,4.284-9.271,4.284-9.271S457.231-0.989,432.96,0.573
				C406.152,2.299,407.417,29.073,407.417,29.073z"/>
			
				<line style="fill:none;stroke:#C5D8EF;stroke-width:1.48;stroke-miterlimit:10;" x1="424.179" y1="32.247" x2="428.479" y2="56.698"/>
			
				<line style="fill:none;stroke:#C5D8EF;stroke-width:1.48;stroke-miterlimit:10;" x1="445.797" y1="32.247" x2="441.497" y2="56.698"/>
		</g>
	</g>
	<g>
		<g>
			<path style="fill:none;stroke:#BCE1FC;stroke-miterlimit:10;" d="M592.667,152.761c2.333-1.833,3.389-5.868,1.781-9.667
				c-1.719-4.063-7.438-4.563-7.438-4.563c3.938-7.188-2.927-10.071-2.927-10.071s-4.918-1.733-7.73,1.892
				c-2.782,3.585-0.02,8.408-0.02,8.408c-2.833,0-5.917,3.417-5.917,3.417c-4,4.75,0.667,10.417,0.667,10.417
				c-3.75,1.333-7.602,7.215-6.042,12.094c1.469,4.594,4.823,6.76,8.906,6.844c2.552,0.052,5.875-1.563,7.11-3.063l-0.019,11.542
				h1.91v-11.292c0,0,2.635,2.625,8.302,2.042s8.167-5.167,7.583-10.5C598.308,155.456,592.667,152.761,592.667,152.761z"/>
			<g>
				<rect x="601.979" y="165.094" style="fill:#BCE0FC;" width="1.969" height="14.656"/>
				<rect x="599.979" y="166.063" style="fill:#BCE0FC;" width="23.938" height="1.938"/>
				<rect x="599.979" y="171.094" style="fill:#BCE0FC;" width="23.938" height="1.938"/>
				<rect x="599.979" y="174.063" style="fill:#BCE0FC;" width="23.938" height="1.938"/>
				<rect x="620.01" y="165.094" style="fill:#BCE0FC;" width="1.969" height="14.656"/>
			</g>
			<rect x="564.104" y="179.094" style="fill:#8DD4FB;" width="59.813" height="2.063"/>
			<path style="fill:none;stroke:#BCE1FC;stroke-miterlimit:10;" d="M604.979,145.157h15.875c0,0,5.188-4.75-1.125-7.875
				c0,0-1.749-6.306-7.062-6.118s-6.063,5.868-6.063,5.868S600.542,139.657,604.979,145.157z"/>
			<path style="fill:none;stroke:#BCE1FC;stroke-miterlimit:10;" d="M575.268,136.002c-0.374-1.675-0.414-3.846,1.019-5.692
				c1.692-2.181,4.141-2.419,5.827-2.266c-0.224-0.729-2.077-6.21-7.037-6.035c-5.313,0.188-6.063,5.868-6.063,5.868
				s-6.063,2.625-1.625,8.125L575.268,136.002L575.268,136.002z"/>
		</g>
		<g>
			<rect x="581.417" y="146.219" style="fill:#BCE0FC;" width="1.25" height="22.625"/>
			<g>
				
					<rect x="580.328" y="147.725" transform="matrix(0.7487 -0.663 0.663 0.7487 46.3738 422.7392)" style="fill:#BCE0FC;" width="0.754" height="4.971"/>
				
					<rect x="580.89" y="149.819" transform="matrix(0.663 -0.7487 0.7487 0.663 84.1761 487.369)" style="fill:#BCE0FC;" width="4.971" height="0.754"/>
			</g>
			
				<rect x="578.884" y="157.575" transform="matrix(0.7487 -0.663 0.663 0.7487 38.5053 424.8066)" style="fill:#BCE0FC;" width="1.227" height="8.092"/>
			
				<rect x="580.538" y="160.991" transform="matrix(0.663 -0.7487 0.7487 0.663 76.0422 492.1187)" style="fill:#BCE0FC;" width="8.092" height="1.227"/>
		</g>
	</g>
	<g>
		<g>
			<path style="fill:none;stroke:#BCE1FC;stroke-miterlimit:10;" d="M1100.846,152.761c2.333-1.833,3.389-5.868,1.781-9.667
				c-1.719-4.063-7.438-4.563-7.438-4.563c3.938-7.188-2.927-10.071-2.927-10.071s-4.918-1.733-7.73,1.892
				c-2.782,3.585-0.02,8.408-0.02,8.408c-2.833,0-5.917,3.417-5.917,3.417c-4,4.75,0.667,10.417,0.667,10.417
				c-3.75,1.333-7.602,7.215-6.042,12.094c1.469,4.594,4.823,6.76,8.906,6.844c2.552,0.052,5.875-1.563,7.11-3.063l-0.019,11.542
				h1.91v-11.292c0,0,2.635,2.625,8.302,2.042s8.167-5.167,7.583-10.5C1106.488,155.456,1100.846,152.761,1100.846,152.761z"/>
			<g>
				<rect x="1110.159" y="165.094" style="fill:#BCE0FC;" width="1.969" height="14.656"/>
				<rect x="1108.159" y="166.063" style="fill:#BCE0FC;" width="23.938" height="1.938"/>
				<rect x="1108.159" y="171.094" style="fill:#BCE0FC;" width="23.938" height="1.938"/>
				<rect x="1108.159" y="174.063" style="fill:#BCE0FC;" width="23.938" height="1.938"/>
				<rect x="1128.19" y="165.094" style="fill:#BCE0FC;" width="1.969" height="14.656"/>
			</g>
			<rect x="1072.284" y="179.094" style="fill:#8DD4FB;" width="59.813" height="2.063"/>
			<path style="fill:none;stroke:#BCE1FC;stroke-miterlimit:10;" d="M1113.159,145.157h15.875c0,0,5.188-4.75-1.125-7.875
				c0,0-1.749-6.306-7.062-6.118s-6.063,5.868-6.063,5.868S1108.721,139.657,1113.159,145.157z"/>
			<path style="fill:none;stroke:#BCE1FC;stroke-miterlimit:10;" d="M1083.447,136.002c-0.374-1.675-0.414-3.846,1.019-5.692
				c1.692-2.181,4.141-2.419,5.827-2.266c-0.224-0.729-2.077-6.21-7.036-6.035c-5.313,0.188-6.063,5.868-6.063,5.868
				s-6.063,2.625-1.625,8.125L1083.447,136.002L1083.447,136.002z"/>
		</g>
		<g>
			<rect x="1089.596" y="146.219" style="fill:#BCE0FC;" width="1.25" height="22.625"/>
			<g>
				
					<rect x="1088.55" y="147.681" transform="matrix(0.7487 -0.663 0.663 0.7487 174.142 759.6586)" style="fill:#BCE0FC;" width="0.754" height="4.971"/>
				
					<rect x="1089.07" y="149.771" transform="matrix(0.663 -0.7487 0.7487 0.663 255.4886 867.8046)" style="fill:#BCE0FC;" width="4.971" height="0.754"/>
			</g>
			
				<rect x="1087.108" y="157.532" transform="matrix(0.7487 -0.663 0.663 0.7487 166.2737 761.7275)" style="fill:#BCE0FC;" width="1.227" height="8.092"/>
			
				<rect x="1088.717" y="160.944" transform="matrix(0.663 -0.7487 0.7487 0.663 247.3539 872.554)" style="fill:#BCE0FC;" width="8.093" height="1.227"/>
		</g>
	</g>
	<g>
		<path style="fill:none;stroke:#BCE0FC;stroke-width:1.5;stroke-miterlimit:10;" d="M679.917,95.323c0,0-1.563-10.813,10.375-9.75
			c0,0,1.875-7.625,11.25-8.708c5.925-0.685,12.5,2.802,12.5,9.477c0,0,9.625-1.894,11.125,8.981H679.917z"/>
		<path style="fill:none;stroke:#BCE0FC;stroke-width:1.5;stroke-miterlimit:10;" d="M714.001,86.342c0,0,4.918-0.965,8.271,2.456
			c2.98-2.072,4.937-5.536,4.937-9.465c0-6.346-5.097-11.49-11.385-11.49c-5.459,0-10.016,3.879-11.123,9.054
			C709.566,77.535,714.001,80.861,714.001,86.342z"/>
	</g>
	<g>
		<g>
			<g>
				<path style="fill:none;stroke:#BCE0FC;stroke-width:2.6156;stroke-miterlimit:10;" d="M824.313,178.386l19.057-38.055
					c0.325-0.648,1.208-0.655,1.542-0.012l19.766,38.055c0.317,0.611-0.104,1.355-0.768,1.355h-38.823
					C824.43,179.729,824.007,178.996,824.313,178.386z"/>
				<path style="fill:none;stroke:#BCE0FC;stroke-width:1.9617;stroke-miterlimit:10;" d="M836.058,154.932l3.279,2.802
					c0.511,0.437,1.254,0.47,1.801,0.08l2.379-1.691c0.57-0.405,1.348-0.351,1.856,0.13l1.525,1.442
					c0.487,0.46,1.224,0.532,1.791,0.173l4.017-2.542"/>
			</g>
			<g>
				<g>
					<path style="fill:none;stroke:#BCE0FC;stroke-width:4;stroke-miterlimit:10;" d="M762.778,176.971l29.143-58.196
						c0.497-0.992,1.847-1.002,2.358-0.019l30.228,58.196c0.485,0.934-0.16,2.073-1.174,2.073h-59.371
						C762.957,179.025,762.311,177.905,762.778,176.971z"/>
					<path style="fill:none;stroke:#BCE0FC;stroke-width:3;stroke-miterlimit:10;" d="M780.74,141.103l5.014,4.285
						c0.781,0.668,1.917,0.719,2.755,0.123l3.638-2.586c0.872-0.62,2.061-0.537,2.838,0.198l2.332,2.205
						c0.745,0.704,1.872,0.813,2.738,0.265l6.143-3.888"/>
				</g>
				<g>
					<path style="fill:#BCE0FC;" d="M780.964,158.489L780.964,158.489c-0.57-0.294-0.797-1.001-0.503-1.571l1.907-3.704
						c0.294-0.57,1.001-0.797,1.571-0.503l0,0c0.57,0.294,0.797,1.001,0.503,1.571l-1.907,3.704
						C782.241,158.557,781.534,158.783,780.964,158.489z"/>
					<path style="fill:#BCE0FC;" d="M772.518,174.893L772.518,174.893c-0.57-0.294-0.797-1.001-0.503-1.571l5.879-11.417
						c0.294-0.57,1.001-0.797,1.571-0.503l0,0c0.57,0.294,0.797,1.001,0.503,1.571l-5.879,11.417
						C773.795,174.96,773.088,175.186,772.518,174.893z"/>
				</g>
			</g>
		</g>
		<g>
			<path style="fill:none;stroke:#BCE0FC;stroke-width:1.5;stroke-miterlimit:10;" d="M813.446,120.703
				c0,0-1.563-10.813,10.375-9.75c0,0,1.875-7.625,11.25-8.708c5.925-0.685,12.5,2.802,12.5,9.477c0,0,9.625-1.894,11.125,8.981
				H813.446z"/>
			<path style="fill:none;stroke:#BCE0FC;stroke-width:1.5;stroke-miterlimit:10;" d="M847.53,111.722c0,0,4.918-0.965,8.271,2.456
				c2.98-2.072,4.937-5.536,4.937-9.465c0-6.346-5.097-11.49-11.385-11.49c-5.459,0-10.016,3.879-11.123,9.054
				C843.095,102.915,847.53,106.241,847.53,111.722z"/>
		</g>
	</g>
	<g>
		<path style="fill:#C5D8EF;" d="M956.165,133.592l-13.333-27.167l-0.046-4.792c0.006-0.224,0.367-3.918,0.367-3.918
			c0.887-4.54,6.125-20.91,27.922-20.91l0,0c0,0,21.236-1.724,28.243,23.322l-0.07,5.423l-14.167,28.542l-1.5-0.583
			c0,0,13.75-26.333,14.083-27.583s0.833-5.75-2.333-12.75c-3.167-7-11.571-13.912-18.958-14.792
			c-10.077-1.2-16.99,0.859-21.302,4.234c-4.741,3.711-9.103,8.074-10.573,16.141l-0.25,7.417l13.167,26.5L956.165,133.592z"/>
		<path style="fill:#E0F0FE;" d="M971.052,78.041c0,0,4.571,4.134,5.196,11.759s0.751,12.306,1.292,14.417
			c0.54,2.11,1.399,4.431,4.2,4.757c2.8,0.326,4.454-2.952,4.677-3.538s1.169-2.886,0-8.886
			C985.248,90.55,980.856,78.907,971.052,78.041z"/>
		<path style="fill:#E0F0FE;" d="M970.698,78.041c0,0-4.571,4.134-5.196,11.759s-0.751,12.306-1.292,14.417
			c-0.54,2.11-1.399,4.431-4.2,4.757c-2.8,0.326-4.454-2.952-4.677-3.538s-1.169-2.886,0-8.886S960.894,78.907,970.698,78.041z"/>
		<path style="fill:none;stroke:#C5D8EF;stroke-miterlimit:10;" d="M943.248,105.8c0,0,4.443,6.742,9.183,0.492
			c0,0,1.755-2.461,2.025-4.867c0,0,0.148,3.666,1.417,5.656c1.183,1.856,3.932,2.649,6.035,1.046
			c2.267-1.729,3.007-6.702,3.007-6.702s-0.302,7.563,5.863,7.563c5.938,0,5.971-7.563,5.971-7.563s0.42,7.563,5.319,7.563
			c4.771,0,5.306-7.563,5.306-7.563s0.54,7.563,6.758,7.563c6.112,0,4.284-9.271,4.284-9.271S993.06,75.738,968.79,77.3
			C941.984,79.026,943.248,105.8,943.248,105.8z"/>
		
			<line style="fill:none;stroke:#C5D8EF;stroke-width:1.48;stroke-miterlimit:10;" x1="960.01" y1="108.974" x2="964.31" y2="133.425"/>
		
			<line style="fill:none;stroke:#C5D8EF;stroke-width:1.48;stroke-miterlimit:10;" x1="981.629" y1="108.974" x2="977.328" y2="133.425"/>
	</g>
	<g>
		<polygon style="fill:none;stroke:#38A2F6;stroke-width:3;stroke-miterlimit:10;" points="1227.542,38.323 1249.917,20.448 
			1257.917,20.448 1246.917,38.323 		"/>
		<polygon style="fill:none;stroke:#38A2F6;stroke-width:3;stroke-miterlimit:10;" points="1272.792,38.323 1292.792,9.198 
			1300.042,9.198 1296.417,38.323 		"/>
		<path style="fill:none;stroke:#38A2F6;stroke-width:3;stroke-miterlimit:10;" d="M1275.008,43.698h12.764
			c0.04,0,0.078,0.016,0.105,0.044l10.4,10.637c0.114,0.117-0.018,0.305-0.167,0.237l-23.164-10.637
			C1274.803,43.913,1274.85,43.698,1275.008,43.698z"/>
		<path style="fill:none;stroke:#38A2F6;stroke-width:3;stroke-miterlimit:10;" d="M1241.364,52.698l13.976,15.793
			c1.045,1.18,0.207,3.041-1.37,3.041h-3.701c-0.372,0-0.736-0.114-1.042-0.326l-26.697-18.507"/>
		<path style="fill:none;stroke:#38A2F6;stroke-width:3;stroke-miterlimit:10;" d="M1209.792,38.323c0,0-17.125,3-21.5,16.5
			c0,0-0.875,4.75,4.125,4.875c2.814,0.07,23.081,0.062,40.27,0.04l16.541,11.467c0.306,0.212,0.67,0.326,1.042,0.326h3.701
			c1.576,0,2.414-1.861,1.37-3.041l-7.765-8.774c5.988-0.01,9.967-0.018,9.967-0.018s11.75-1.125,24.875-8.25
			c1.414-0.767,2.7-1.521,3.883-2.256l-11.352-5.213c-0.144-0.066-0.097-0.281,0.062-0.281h12.764c0.04,0,0.078,0.016,0.105,0.044
			l2.576,2.634c6.294-4.686,7.838-8.054,7.838-8.054h-88.502L1209.792,38.323L1209.792,38.323z"/>
		<rect x="1193.25" y="44.125" style="fill:#38A2F6;" width="14.667" height="4.167"/>
		<rect x="1213.031" y="44.125" style="fill:#38A2F6;" width="3.948" height="4.167"/>
		<rect x="1220.789" y="44.125" style="fill:#38A2F6;" width="3.948" height="4.167"/>
		<rect x="1228.547" y="44.125" style="fill:#38A2F6;" width="3.948" height="4.167"/>
		<rect x="1236.305" y="44.125" style="fill:#38A2F6;" width="3.948" height="4.167"/>
		<rect x="1244.063" y="44.125" style="fill:#38A2F6;" width="3.948" height="4.167"/>
	</g>
	<g style="opacity:0.1;">
		<polygon style="fill:none;stroke:#38A2F6;stroke-width:3;stroke-miterlimit:10;" points="1305.78,36.282 1328.155,18.407 
			1336.155,18.407 1325.155,36.282 		"/>
		<polygon style="fill:none;stroke:#38A2F6;stroke-width:3;stroke-miterlimit:10;" points="1351.03,36.282 1371.03,7.157 
			1378.28,7.157 1374.655,36.282 		"/>
		<path style="fill:none;stroke:#38A2F6;stroke-width:3;stroke-miterlimit:10;" d="M1353.247,41.657h12.764
			c0.04,0,0.078,0.016,0.105,0.044l10.4,10.637c0.114,0.117-0.018,0.305-0.167,0.237l-23.164-10.637
			C1353.042,41.872,1353.089,41.657,1353.247,41.657z"/>
		<path style="fill:none;stroke:#38A2F6;stroke-width:3;stroke-miterlimit:10;" d="M1319.602,50.657l13.976,15.793
			c1.044,1.18,0.207,3.041-1.37,3.041h-3.701c-0.372,0-0.736-0.114-1.042-0.326l-26.697-18.507"/>
		<path style="fill:none;stroke:#38A2F6;stroke-width:3;stroke-miterlimit:10;" d="M1288.03,36.282c0,0-17.125,3-21.5,16.5
			c0,0-0.875,4.75,4.125,4.875c2.813,0.07,23.081,0.062,40.27,0.04l16.541,11.467c0.306,0.212,0.67,0.326,1.042,0.326h3.701
			c1.576,0,2.414-1.861,1.37-3.041l-7.765-8.774c5.988-0.01,9.967-0.018,9.967-0.018s11.75-1.125,24.875-8.25
			c1.414-0.767,2.7-1.521,3.883-2.256l-11.352-5.213c-0.144-0.066-0.097-0.281,0.062-0.281h12.764c0.04,0,0.078,0.016,0.105,0.044
			l2.576,2.634c6.294-4.686,7.838-8.054,7.838-8.054h-88.502L1288.03,36.282L1288.03,36.282z"/>
		<rect x="1271.488" y="42.084" style="fill:#38A2F6;" width="14.667" height="4.167"/>
		<rect x="1291.269" y="42.084" style="fill:#38A2F6;" width="3.948" height="4.167"/>
		<rect x="1299.027" y="42.084" style="fill:#38A2F6;" width="3.948" height="4.167"/>
		<rect x="1306.785" y="42.084" style="fill:#38A2F6;" width="3.948" height="4.167"/>
		<rect x="1314.543" y="42.084" style="fill:#38A2F6;" width="3.948" height="4.167"/>
		<rect x="1322.301" y="42.084" style="fill:#38A2F6;" width="3.948" height="4.167"/>
	</g>
	<g style="opacity:0.1;">
		<polygon style="fill:none;stroke:#38A2F6;stroke-width:3;stroke-miterlimit:10;" points="1336.504,34.24 1358.879,16.365 
			1366.879,16.365 1355.879,34.24 		"/>
		<polygon style="fill:none;stroke:#38A2F6;stroke-width:3;stroke-miterlimit:10;" points="1381.754,34.24 1401.754,5.115 
			1409.004,5.115 1405.379,34.24 		"/>
		<path style="fill:none;stroke:#38A2F6;stroke-width:3;stroke-miterlimit:10;" d="M1383.97,39.615h12.764
			c0.04,0,0.078,0.016,0.105,0.044l10.4,10.637c0.114,0.117-0.018,0.305-0.167,0.237l-23.164-10.637
			C1383.765,39.83,1383.812,39.615,1383.97,39.615z"/>
		<path style="fill:none;stroke:#38A2F6;stroke-width:3;stroke-miterlimit:10;" d="M1350.326,48.615l13.976,15.792
			c1.044,1.18,0.207,3.041-1.37,3.041h-3.701c-0.372,0-0.736-0.114-1.042-0.326l-26.697-18.507"/>
		<path style="fill:none;stroke:#38A2F6;stroke-width:3;stroke-miterlimit:10;" d="M1318.754,34.24c0,0-17.125,3-21.5,16.5
			c0,0-0.875,4.75,4.125,4.875c2.813,0.07,23.081,0.062,40.27,0.04l16.541,11.467c0.306,0.212,0.67,0.326,1.042,0.326h3.701
			c1.576,0,2.414-1.861,1.37-3.041l-7.765-8.774c5.988-0.01,9.967-0.018,9.967-0.018s11.75-1.125,24.875-8.25
			c1.414-0.767,2.7-1.521,3.883-2.256l-11.352-5.213c-0.144-0.066-0.097-0.281,0.062-0.281h12.764c0.04,0,0.078,0.016,0.105,0.044
			l2.576,2.634c6.294-4.686,7.838-8.054,7.838-8.054h-88.502L1318.754,34.24L1318.754,34.24z"/>
		<rect x="1302.212" y="40.042" style="fill:#38A2F6;" width="14.667" height="4.167"/>
		<rect x="1321.993" y="40.042" style="fill:#38A2F6;" width="3.948" height="4.167"/>
		<rect x="1329.751" y="40.042" style="fill:#38A2F6;" width="3.948" height="4.167"/>
		<rect x="1337.509" y="40.042" style="fill:#38A2F6;" width="3.948" height="4.167"/>
		<rect x="1345.266" y="40.042" style="fill:#38A2F6;" width="3.948" height="4.167"/>
		<rect x="1353.024" y="40.042" style="fill:#38A2F6;" width="3.948" height="4.167"/>
	</g>
	<g style="opacity:0.1;">
		<polygon style="fill:none;stroke:#38A2F6;stroke-width:3;stroke-miterlimit:10;" points="1378.957,36.282 1401.332,18.407 
			1409.332,18.407 1398.332,36.282 		"/>
		<polygon style="fill:none;stroke:#38A2F6;stroke-width:3;stroke-miterlimit:10;" points="1424.207,36.282 1444.207,7.157 
			1451.457,7.157 1447.832,36.282 		"/>
		<path style="fill:none;stroke:#38A2F6;stroke-width:3;stroke-miterlimit:10;" d="M1426.424,41.657h12.764
			c0.04,0,0.078,0.016,0.105,0.044l10.4,10.637c0.114,0.117-0.018,0.305-0.167,0.237l-23.164-10.637
			C1426.219,41.872,1426.266,41.657,1426.424,41.657z"/>
		<path style="fill:none;stroke:#38A2F6;stroke-width:3;stroke-miterlimit:10;" d="M1392.78,50.657l13.976,15.793
			c1.045,1.18,0.207,3.041-1.37,3.041h-3.701c-0.372,0-0.736-0.114-1.042-0.326l-26.697-18.507"/>
		<path style="fill:none;stroke:#38A2F6;stroke-width:3;stroke-miterlimit:10;" d="M1361.207,36.282c0,0-17.125,3-21.5,16.5
			c0,0-0.875,4.75,4.125,4.875c2.814,0.07,23.081,0.062,40.27,0.04l16.541,11.467c0.306,0.212,0.67,0.326,1.042,0.326h3.701
			c1.576,0,2.414-1.861,1.37-3.041l-7.765-8.774c5.988-0.01,9.967-0.018,9.967-0.018s11.75-1.125,24.875-8.25
			c1.414-0.767,2.7-1.521,3.883-2.256l-11.352-5.213c-0.144-0.066-0.097-0.281,0.062-0.281h12.764c0.04,0,0.078,0.016,0.105,0.044
			l2.576,2.634c6.294-4.686,7.838-8.054,7.838-8.054h-88.502L1361.207,36.282L1361.207,36.282z"/>
		<rect x="1344.666" y="42.084" style="fill:#38A2F6;" width="14.667" height="4.167"/>
		<rect x="1364.447" y="42.084" style="fill:#38A2F6;" width="3.948" height="4.167"/>
		<rect x="1372.205" y="42.084" style="fill:#38A2F6;" width="3.948" height="4.167"/>
		<rect x="1379.963" y="42.084" style="fill:#38A2F6;" width="3.948" height="4.167"/>
		<rect x="1387.72" y="42.084" style="fill:#38A2F6;" width="3.948" height="4.167"/>
		<rect x="1395.478" y="42.084" style="fill:#38A2F6;" width="3.948" height="4.167"/>
	</g>
</g>
</svg>
