<?xml version="1.0" encoding="iso-8859-1"?>
<!-- Generator: Adobe Illustrator 21.1.0, SVG Export Plug-In . SVG Version: 6.00 Build 0)  -->
<svg version="1.1" id="Layer_1" xmlns="http://www.w3.org/2000/svg" xmlns:xlink="http://www.w3.org/1999/xlink" x="0px" y="0px"
	 viewBox="0 0 489.623 521.124" style="enable-background:new 0 0 489.623 521.124;" xml:space="preserve">
<path style="fill:#F9F9FC;" d="M0.083,39.408c0,0,80.667-27.302,121.792-33.427s47.792-11.542,106.143,5.152L376,45.44
	c0,0,29.667,7,49.796,46.219c7.604,14.816,25.032,50.187,45.572,84.202c10.656,17.646,16.645,37.699,17.441,58.297
	c1.848,47.788,2.149,138.486-17.142,202.948c0,0-4,28-73.333,37.333C329,483.773,91.333,521.782,0,521.115L0.083,39.408z"/>
<linearGradient id="SVGID_1_" gradientUnits="userSpaceOnUse" x1="113.8902" y1="427.498" x2="7.5762" y2="135.4026">
	<stop  offset="0" style="stop-color:#FFFFFF;stop-opacity:0"/>
	<stop  offset="1" style="stop-color:#E3E2E8"/>
</linearGradient>
<polygon style="fill:url(#SVGID_1_);" points="0.083,138.13 215.333,354.44 0.833,468.647 "/>
</svg>
