<?xml version="1.0" encoding="iso-8859-1"?>
<!-- Generator: Adobe Illustrator 21.1.0, SVG Export Plug-In . SVG Version: 6.00 Build 0)  -->
<svg version="1.1" id="Layer_1" xmlns="http://www.w3.org/2000/svg" xmlns:xlink="http://www.w3.org/1999/xlink" x="0px" y="0px"
	 viewBox="0 0 90 90" style="enable-background:new 0 0 90 90;" xml:space="preserve">
<g>
	
		<linearGradient id="SVGID_1_" gradientUnits="userSpaceOnUse" x1="45" y1="90" x2="45" y2="0" gradientTransform="matrix(1 0 0 -1 0 90)">
		<stop  offset="1.006390e-07" style="stop-color:#FFFFFF;stop-opacity:0"/>
		<stop  offset="1" style="stop-color:#F8F9FC"/>
	</linearGradient>
	<circle style="fill:url(#SVGID_1_);" cx="45" cy="45" r="45"/>
	<path style="fill:#FEC8CD;" d="M49.806,62.871l-1.661-0.959l0.978-3.725c0.253-0.965,0.264-1.997-0.085-2.931
		c-0.33-0.884-1.055-1.501-4.13-1.242c-0.868,0.073-1.676,0.48-2.275,1.112L40.5,57.375L17.381,44.151
		c-0.556-0.321-0.748-1.038-0.427-1.594L27.951,23.51l6.007-0.056l13.452,7.978l0.939,2.226c0.674,1.597,2.296,2.58,4.023,2.44
		l2.735-0.222l7.713,4.453c0.556,0.321,0.748,1.038,0.427,1.594L51.4,62.444C51.079,63,50.362,63.192,49.806,62.871z"/>
	<path style="fill:#2198F6;" d="M55.618,62.121l-6.37-3.677l-0.633-1.427c-0.728-1.642-2.361-2.694-4.157-2.678l-2.286,0.02
		L23.194,43.401c-0.556-0.321-0.748-1.038-0.427-1.594l11.848-20.521c0.321-0.556,1.038-0.748,1.594-0.427l17.015,9.823l0.939,2.226
		c0.674,1.597,2.296,2.58,4.023,2.44l2.735-0.222l7.713,4.453c0.556,0.321,0.748,1.038,0.427,1.594L57.212,61.694
		C56.891,62.25,56.174,62.442,55.618,62.121z"/>
</g>
</svg>
