<?xml version="1.0" encoding="iso-8859-1"?>
<!-- Generator: Adobe Illustrator 21.1.0, SVG Export Plug-In . SVG Version: 6.00 Build 0)  -->
<svg version="1.1" id="Layer_1" xmlns="http://www.w3.org/2000/svg" xmlns:xlink="http://www.w3.org/1999/xlink" x="0px" y="0px"
	 viewBox="0 0 272 315" style="enable-background:new 0 0 272 315;" xml:space="preserve">
<g>
	
		<linearGradient id="SVGID_1_" gradientUnits="userSpaceOnUse" x1="136.05" y1="-223.9" x2="136.05" y2="87.1" gradientTransform="matrix(1 0 0 1 0 226)">
		<stop  offset="0" style="stop-color:#AEE3FD"/>
		<stop  offset="1" style="stop-color:#AEE3FD;stop-opacity:0"/>
	</linearGradient>
	<path style="fill:url(#SVGID_1_);" d="M270.1,137.8C269,62.6,209.4,2.1,136,2.1c-19.1,0-37.3,4.1-53.8,11.6c1.9,1.4,4,3.9,4.5,8.4
		c0,0,10.3,0.7,12,11.2s-9,13.8-9,13.8h-38c0,0-5.9-1.6-7.6-7.6c-26,25.1-42.2,60.8-42.2,100.4c0,2.4,0.1,4.9,0.2,7.3v165.9h268.1
		L270.1,137.8L270.1,137.8z M163.8,32.4h-24.5c0,0-4.5-2.4-3.3-6.7c1.1-3.9,4.9-4.2,4.9-4.2S140.3,10,153,10.6c0,0,6.9,0.4,7.8,7.8
		c0,0,6.7,0.4,7.2,6.8C168.4,31.7,163.8,32.4,163.8,32.4z"/>
	<g>
		<g>
			<path style="fill:#3E3E56;" d="M82.7,135.7H54.6v-31.4h-9.9v31.4h-28c-2.2,0-4,1.8-4,4v158.7c0,2.2,1.8,4,4,4h66c2.2,0,4-1.8,4-4
				V139.7C86.7,137.5,84.9,135.7,82.7,135.7z M20.7,294.3l0.2-148.7l57.9-0.2v148.8L20.7,294.3z"/>
			<path style="fill:#3E3E56;" d="M65.9,153.4H33.6c-2.7,0-4.9,2.2-4.9,4.9v16.1c0,2.7,2.2,4.9,4.9,4.9h32.3c2.7,0,4.9-2.2,4.9-4.9
				v-16.1C70.8,155.6,68.6,153.4,65.9,153.4z M46.8,171.4H36.7v-10.1h10.1C46.8,161.3,46.8,171.4,46.8,171.4z M63.1,171.4H53v-10.1
				h10.1V171.4z"/>
			<path style="fill:#3E3E56;" d="M65.9,186.7H33.6c-2.7,0-4.9,2.2-4.9,4.9v16.1c0,2.7,2.2,4.9,4.9,4.9h32.3c2.7,0,4.9-2.2,4.9-4.9
				v-16.1C70.8,188.9,68.6,186.7,65.9,186.7z M46.8,204.7H36.7v-10.1h10.1C46.8,194.6,46.8,204.7,46.8,204.7z M63.1,204.7H53v-10.1
				h10.1V204.7z"/>
			<path style="fill:#3E3E56;" d="M65.9,220H33.6c-2.7,0-4.9,2.2-4.9,4.9V241c0,2.7,2.2,4.9,4.9,4.9h32.3c2.7,0,4.9-2.2,4.9-4.9v-16
				C70.8,222.2,68.6,220,65.9,220z M46.8,238.1H36.7V228h10.1C46.8,228,46.8,238.1,46.8,238.1z M63.1,238.1H53V228h10.1V238.1z"/>
			<rect x="28.9" y="252.4" style="fill:#3E3E56;" width="9" height="9"/>
			<rect x="45.3" y="252.4" style="fill:#3E3E56;" width="9" height="9"/>
			<rect x="61.9" y="252.4" style="fill:#3E3E56;" width="9" height="9"/>
		</g>
		<g>
			<g>
				<path style="fill:#3E3E56;" d="M256,203.9H131.4c-1.9,0-3.5,1.6-3.5,3.5v75.4c0,10.9,8.8,19.7,19.7,19.7h92.3
					c10.9,0,19.7-8.8,19.7-19.7v-75.4C259.5,205.5,257.9,203.9,256,203.9z M251.7,282.4c0,6.8-5.5,12.3-12.3,12.3h-91.3
					c-6.8,0-12.3-5.5-12.3-12.3v-70.9h115.8v70.9H251.7z"/>
				<path style="fill:#3E3E56;" d="M258,203.4H129.3c-0.8,0-1.5,0.7-1.5,1.5v18.3c0,12,9.8,21.9,21.9,21.9h87.9
					c12,0,21.9-9.8,21.9-21.9v-18.3C259.5,204,258.8,203.4,258,203.4z M251.5,224.4c0,7.3-5.9,13.2-13.2,13.2H149
					c-7.3,0-13.2-5.9-13.2-13.2v-13h115.7V224.4z"/>
				<g>
					<path style="fill:#3E3E56;" d="M202.9,219.7H184c-3.9,0-7.1,3.2-7.1,7.1V238c0,3.9,3.2,7.1,7.1,7.1h18.9c3.9,0,7.1-3.2,7.1-7.1
						v-11.2C210,222.9,206.8,219.7,202.9,219.7z M202.5,242.1h-17v-13.8h17V242.1z"/>
					<path style="fill:#3E3E56;" d="M230.2,238h-14.7c-3,0-5.5,2.5-5.5,5.5V256c0,3,2.5,5.5,5.5,5.5h14.7c3,0,5.5-2.5,5.5-5.5v-12.5
						C235.7,240.4,233.2,238,230.2,238z M227.9,254h-10.3v-10.3h10.3V254z"/>
					<path style="fill:#3E3E56;" d="M171.9,238h-14.7c-3,0-5.5,2.5-5.5,5.5V256c0,3,2.5,5.5,5.5,5.5h14.7c3,0,5.5-2.5,5.5-5.5v-12.5
						C177.4,240.4,174.9,238,171.9,238z M169.6,254h-10.3v-10.3h10.3V254z"/>
					<g>
						<rect x="201.7" y="277.7" style="fill:#3E3E56;" width="9" height="9"/>
						<rect x="218.3" y="277.7" style="fill:#3E3E56;" width="9" height="9"/>
						<rect x="234.7" y="277.7" style="fill:#3E3E56;" width="9" height="9"/>
					</g>
				</g>
			</g>
			<path style="fill:#3E3E56;" d="M206.7,186.9h-24.4c-6.9,0-12.4,5.6-12.4,12.4v11.9h49.3v-11.9
				C219.1,192.4,213.6,186.9,206.7,186.9z M210.7,208.4h-33.8v-9.8c0-2.7,2.2-4.9,4.9-4.9h24c2.7,0,4.9,2.2,4.9,4.9L210.7,208.4
				L210.7,208.4z"/>
		</g>
		<g>
			<path style="fill:#3E3E56;" d="M213.9,153.7h-32.3c-2.7,0-4.9,2.2-4.9,4.9v16.1c0,2.7,2.2,4.9,4.9,4.9h32.3
				c2.7,0,4.9-2.2,4.9-4.9v-16.1C218.8,155.9,216.6,153.7,213.9,153.7z M194.8,171.7h-10.1v-10.1h10.1V171.7z M211.1,171.7H201
				v-10.1h10.1V171.7z"/>
			<path style="fill:#3E3E56;" d="M214.1,120.5h-32.3c-2.7,0-4.9,2.2-4.9,4.9v16.1c0,2.7,2.2,4.9,4.9,4.9h32.3
				c2.7,0,4.9-2.2,4.9-4.9v-16.1C219.1,122.7,216.8,120.5,214.1,120.5z M195.1,138.6H185v-10.1h10.1V138.6z M211.4,138.6h-10.1
				v-10.1h10.1V138.6z"/>
			<g>
				<path style="fill:#3E3E56;" d="M231.2,105.7h-66.5c-2,0-3.7,1.7-3.7,3.7v98c0,2,1.6,3.7,3.7,3.7h66.5c2,0,3.7-1.6,3.7-3.7v-98
					C234.9,107.3,233.3,105.7,231.2,105.7z M227.8,210.5h-59v-97.7h59V210.5z"/>
				<path style="fill:#41445B;" d="M234.9,86.9l-10.8-10.5l9.3-9.8l-5.5-5.3l-9.2,9c0,0-12.2-12.2-13.5-14s-5.3,0-5.3,0
					s-4.3,4.6-6,7.3c-1.7,2.8-2.2,9.6-1.3,13.2c0.9,3.7,7.9,11.3,7.9,11.3l-6.5,7.5v11.2h8.3v-8.7l4.3-4c0,0,2.7,3.8,11.3,4.3
					s15.7-6.3,16.9-8.2C236.2,88.4,234.9,86.9,234.9,86.9z M213.3,89.9C209,86.6,201,77.8,201,77.8s-3.1-5.8,1.3-11.9L225,88.6
					C225,88.6,217.7,93.2,213.3,89.9z"/>
			</g>
		</g>
		<g>
			<g>
				<path style="fill:#3E3E56;" d="M116,105.4H98.7c-1.6,0-2.9,1.3-2.9,2.9v18.2c0,1.6,1.3,2.9,2.9,2.9H116c1.6,0,2.9-1.3,2.9-2.9
					v-18.2C119,106.7,117.6,105.4,116,105.4z M111.8,121.4h-8.9v-8.9h8.9V121.4z"/>
				<path style="fill:#3E3E56;" d="M148.9,105.4h-17.3c-1.6,0-2.9,1.3-2.9,2.9v18.2c0,1.6,1.3,2.9,2.9,2.9h17.3
					c1.6,0,2.9-1.3,2.9-2.9v-18.2C151.9,106.7,150.6,105.4,148.9,105.4z M144.8,121.4h-8.9v-8.9h8.9V121.4z"/>
				<path style="fill:#3E3E56;" d="M116,138.4H98.7c-1.6,0-2.9,1.3-2.9,2.9v18.2c0,1.6,1.3,2.9,2.9,2.9H116c1.6,0,2.9-1.3,2.9-2.9
					v-18.2C119,139.7,117.6,138.4,116,138.4z M111.8,154.4h-8.9v-8.9h8.9V154.4z"/>
				<path style="fill:#3E3E56;" d="M148.9,138.4h-17.3c-1.6,0-2.9,1.3-2.9,2.9v18.2c0,1.6,1.3,2.9,2.9,2.9h17.3
					c1.6,0,2.9-1.3,2.9-2.9v-18.2C151.9,139.7,150.6,138.4,148.9,138.4z M144.8,154.4h-8.9v-8.9h8.9V154.4z"/>
				<path style="fill:#3E3E56;" d="M116,171.5H98.7c-1.6,0-2.9,1.3-2.9,2.9v18.2c0,1.6,1.3,2.9,2.9,2.9H116c1.6,0,2.9-1.3,2.9-2.9
					v-18.2C119,172.8,117.6,171.5,116,171.5z M111.8,187.5h-8.9v-8.9h8.9V187.5z"/>
				<path style="fill:#3E3E56;" d="M148.9,171.5h-17.3c-1.6,0-2.9,1.3-2.9,2.9v18.2c0,1.6,1.3,2.9,2.9,2.9h17.3
					c1.6,0,2.9-1.3,2.9-2.9v-18.2C151.9,172.8,150.6,171.5,148.9,171.5z M144.8,187.5h-8.9v-8.9h8.9V187.5z"/>
				<path style="fill:#3E3E56;" d="M116.1,221H98.8c-1.6,0-2.9,1.3-2.9,2.9v18.2c0,1.6,1.3,2.9,2.9,2.9h17.3c1.6,0,2.9-1.3,2.9-2.9
					v-18.2C119.1,222.3,117.7,221,116.1,221z M111.9,237H103v-8.9h8.9V237z"/>
				<path style="fill:#3E3E56;" d="M168.8,182.4V92.9c0-2.4-1.9-4.3-4.3-4.3H83.2c-2.4,0-4.3,1.9-4.3,4.3v205.2
					c0,2.4,1.9,4.3,4.3,4.3h81.3c2.4,0,4.3-2,4.3-4.3v-3.8h-18.3v-0.1h-34.7v-32.5h15.9v-9H94.8v9h12v32.5H86.7V96.1h74.1v86.3
					H168.8L168.8,182.4z"/>
			</g>
			<path style="fill:#3E3E56;" d="M123.9,66.2l20.5,28H155l-28.3-37.1c-1.5-2-4.4-1.9-5.9,0l-28.1,37h10.6L123.9,66.2z"/>
		</g>
	</g>
</g>
</svg>
