<?xml version="1.0" encoding="utf-8"?>
<!-- Generator: Adobe Illustrator 21.1.0, SVG Export Plug-In . SVG Version: 6.00 Build 0)  -->
<svg version="1.1" id="Layer_1" xmlns="http://www.w3.org/2000/svg" xmlns:xlink="http://www.w3.org/1999/xlink" x="0px" y="0px"
	 viewBox="0 0 272 315" style="enable-background:new 0 0 272 315;" xml:space="preserve">
<style type="text/css">
	.st0{fill:url(#SVGID_1_);}
	.st1{fill:#3E3E56;}
</style>
<g>
	
		<linearGradient id="SVGID_1_" gradientUnits="userSpaceOnUse" x1="135.9995" y1="314" x2="135.9995" y2="3" gradientTransform="matrix(1 0 0 -1 0 316)">
		<stop  offset="0" style="stop-color:#AEE3FD"/>
		<stop  offset="1" style="stop-color:#AEE3FD;stop-opacity:0"/>
	</linearGradient>
	<path class="st0" d="M270.1,137.6c-0.2-14.1-2.5-27.6-6.5-40.4c-16.4,0-31.2,0-47.5,0c-0.7-0.7-6.6-7.4-5.6-12.6
		c0.6-3,1.4-5,3.1-6.8c2.2-2.3,7.4-2.6,7.4-2.6s-0.7-14.1,6-17.9c3.3-1.8,6.4-3.3,14.4-3C216.8,22.5,178.7,2,136,2
		C61.9,2,1.8,63.7,1.8,139.8c0,2.4,0.1,4.9,0.2,7.3V313h268.1L270.1,137.6L270.1,137.6z M176.5,33.9c-2.5,3.6-5,3.9-5,3.9h-28.7
		c0,0-5.3-1.9-6.2-6.3c-0.8-4.4,1.6-7.1,2.3-7.6c0.7-0.5,1.7-1.7,4.8-1.8c0,0-0.2-10.1,7.3-12.5s11.4,0,14.9,3s3.2,6.7,3.2,6.7
		s5.3,0.3,7.3,3.7S179,30.3,176.5,33.9z"/>
	<g>
		<g>
			<path class="st1" d="M152.3,93.7h-11.9v-25c0-1.5-1.2-2.6-2.6-2.6H86.9c-1.5,0-2.6,1.2-2.6,2.6v25H72.9c-2.1,0-3.8,1.7-3.8,3.8
				v109.1H76V101.3h10.9h5.4l0-27.4h39.9l0,27.4h0.1h5.4h11v76.3h7.3V97.4C156,95.4,154.3,93.7,152.3,93.7z"/>
			<path class="st1" d="M104.5,101.3L104.5,101.3c-2,0-3.6-1.6-3.6-3.6V85.3c0-2,1.6-3.6,3.6-3.6l0,0c2,0,3.6,1.6,3.6,3.6v12.4
				C108.1,99.7,106.5,101.3,104.5,101.3z"/>
			<path class="st1" d="M120,101.3L120,101.3c-2,0-3.6-1.6-3.6-3.6V85.3c0-2,1.6-3.6,3.6-3.6l0,0c2,0,3.6,1.6,3.6,3.6v12.4
				C123.6,99.7,122,101.3,120,101.3z"/>
			<path class="st1" d="M88.2,204.9L88.2,204.9c-2.2,0-4-1.8-4-4v-87.7c0-2.2,1.8-4,4-4l0,0c2.2,0,4,1.8,4,4v87.7
				C92.3,203.1,90.5,204.9,88.2,204.9z"/>
			<path class="st1" d="M104.5,302.7L104.5,302.7c-2.2,0-4-1.8-4-4V113.2c0-2.2,1.8-4,4-4l0,0c2.2,0,4,1.8,4,4v185.4
				C108.5,300.9,106.7,302.7,104.5,302.7z"/>
			<path class="st1" d="M120,181.8L120,181.8c-2.2,0-4-1.8-4-4v-64.6c0-2.2,1.8-4,4-4l0,0c2.2,0,4,1.8,4,4v64.6
				C124,180,122.2,181.8,120,181.8z"/>
			<path class="st1" d="M136.4,181.8L136.4,181.8c-2.2,0-4-1.8-4-4v-64.6c0-2.2,1.8-4,4-4l0,0c2.2,0,4,1.8,4,4v64.6
				C140.4,180,138.6,181.8,136.4,181.8z"/>
		</g>
		<g>
			<g>
				<path class="st1" d="M104.5,296.4H28.3v-88.1h76.1V201H61.3v-12.5c0-1.8-1.5-3.3-3.3-3.3H31.9c-1.8,0-3.3,1.5-3.3,3.3V201h-2.5
					c-2.8,0-5.2,2.3-5.2,5.2v92c0,2.8,2.3,5.2,5.2,5.2h78.3L104.5,296.4L104.5,296.4z M37,191.9h15.9v9.1H37V191.9z"/>
				<path class="st1" d="M74,216.7c-2.7,0-4.8,2.2-4.8,4.8v81.7h7.2v-79.3h26v-7.3L74,216.7L74,216.7z"/>
				<path class="st1" d="M103.2,240.8H88.6c-2.4,0-4.4-2-4.4-4.4l0,0c0-2.4,2-4.4,4.4-4.4h14.6c2.4,0,4.4,2,4.4,4.4l0,0
					C107.6,238.8,105.6,240.8,103.2,240.8z"/>
				<path class="st1" d="M103.2,256.9H88.6c-2.4,0-4.4-2-4.4-4.4l0,0c0-2.4,2-4.4,4.4-4.4h14.6c2.4,0,4.4,2,4.4,4.4l0,0
					C107.6,254.9,105.6,256.9,103.2,256.9z"/>
				<path class="st1" d="M103.5,273H88.9c-2.4,0-4.4-2-4.4-4.4l0,0c0-2.4,2-4.4,4.4-4.4h14.6c2.4,0,4.4,2,4.4,4.4l0,0
					C107.9,271,105.9,273,103.5,273z"/>
				<path class="st1" d="M103.2,289.1H88.6c-2.4,0-4.4-2-4.4-4.4l0,0c0-2.4,2-4.4,4.4-4.4h14.6c2.4,0,4.4,2,4.4,4.4l0,0
					C107.6,287.1,105.6,289.1,103.2,289.1z"/>
			</g>
			<g>
				<path class="st1" d="M41.1,232L41.1,232c-2.2,0-3.9-1.8-3.9-3.9v-7.5c0-2.2,1.8-3.9,3.9-3.9l0,0c2.2,0,3.9,1.8,3.9,3.9v7.5
					C45,230.2,43.2,232,41.1,232z"/>
				<path class="st1" d="M41.1,255.8L41.1,255.8c-2.2,0-3.9-1.8-3.9-3.9v-7.5c0-2.2,1.8-3.9,3.9-3.9l0,0c2.2,0,3.9,1.8,3.9,3.9v7.5
					C45,254,43.2,255.8,41.1,255.8z"/>
				<path class="st1" d="M41.1,279.5L41.1,279.5c-2.2,0-3.9-1.8-3.9-3.9v-7.5c0-2.2,1.8-3.9,3.9-3.9l0,0c2.2,0,3.9,1.8,3.9,3.9v7.5
					C45,277.7,43.2,279.5,41.1,279.5z"/>
				<path class="st1" d="M57.1,232L57.1,232c-2.2,0-3.9-1.8-3.9-3.9v-7.5c0-2.2,1.8-3.9,3.9-3.9l0,0c2.2,0,3.9,1.8,3.9,3.9v7.5
					C61,230.2,59.2,232,57.1,232z"/>
				<path class="st1" d="M57.1,255.8L57.1,255.8c-2.2,0-3.9-1.8-3.9-3.9v-7.5c0-2.2,1.8-3.9,3.9-3.9l0,0c2.2,0,3.9,1.8,3.9,3.9v7.5
					C61,254,59.2,255.8,57.1,255.8z"/>
				<path class="st1" d="M57.1,279.5L57.1,279.5c-2.2,0-3.9-1.8-3.9-3.9v-7.5c0-2.2,1.8-3.9,3.9-3.9l0,0c2.2,0,3.9,1.8,3.9,3.9v7.5
					C61,277.7,59.2,279.5,57.1,279.5z"/>
			</g>
		</g>
		<path class="st1" d="M191.3,177.3v-12.5c0-2.1-1.7-3.8-3.8-3.8h-4.1v-4.6c0-1.9-1.6-3.5-3.5-3.5s-3.5,1.6-3.5,3.5v4.6h-4
			c-2.1,0-3.8,1.7-3.8,3.8v12.5h-68.3v126h102.7v-126L191.3,177.3L191.3,177.3z M175.3,169h9.1v8.3h-9.1V169z M195.8,296.7h-8.3
			V196.6c0-1.9-1.6-3.5-3.5-3.5l0,0c-1.9,0-3.5,1.6-3.5,3.5v100.1h-9V196.6c0-1.9-1.6-3.5-3.5-3.5l0,0c-1.9,0-3.5,1.6-3.5,3.5v100.1
			H156V196.6c0-1.9-1.6-3.5-3.5-3.5l0,0c-1.9,0-3.5,1.6-3.5,3.5v100.1h-9.1V196.6c0-1.9-1.6-3.5-3.5-3.5s-3.5,1.6-3.5,3.5v100.1H124
			V196.6c0-1.9-1.6-3.5-3.5-3.5l0,0c-1.9,0-3.5,1.6-3.5,3.5v100.1h-8.8V184.4h64h3h9.1h3.1h8.4L195.8,296.7L195.8,296.7z"/>
		<g>
			<path class="st1" d="M215.9,139.7L215.9,139.7c-1.8,0-3.3-1.5-3.3-3.3v-8.7c0-1.8,1.5-3.3,3.3-3.3l0,0c1.8,0,3.3,1.5,3.3,3.3v8.7
				C219.2,138.2,217.7,139.7,215.9,139.7z"/>
			<path class="st1" d="M215.9,164L215.9,164c-1.8,0-3.3-1.5-3.3-3.3V152c0-1.8,1.5-3.3,3.3-3.3l0,0c1.8,0,3.3,1.5,3.3,3.3v8.7
				C219.2,162.5,217.7,164,215.9,164z"/>
			<path class="st1" d="M215.9,187.3L215.9,187.3c-1.8,0-3.3-1.5-3.3-3.3v-8.7c0-1.8,1.5-3.3,3.3-3.3l0,0c1.8,0,3.3,1.5,3.3,3.3v8.7
				C219.2,185.8,217.7,187.3,215.9,187.3z"/>
			<path class="st1" d="M215.9,211.6L215.9,211.6c-1.8,0-3.3-1.5-3.3-3.3v-8.7c0-1.8,1.5-3.3,3.3-3.3l0,0c1.8,0,3.3,1.5,3.3,3.3v8.7
				C219.2,210.1,217.7,211.6,215.9,211.6z"/>
			<path class="st1" d="M215.9,235.1L215.9,235.1c-1.8,0-3.3-1.5-3.3-3.3v-8.7c0-1.8,1.5-3.3,3.3-3.3l0,0c1.8,0,3.3,1.5,3.3,3.3v8.7
				C219.2,233.6,217.7,235.1,215.9,235.1z"/>
			<path class="st1" d="M215.9,258.5L215.9,258.5c-1.8,0-3.3-1.5-3.3-3.3v-8.7c0-1.8,1.5-3.3,3.3-3.3l0,0c1.8,0,3.3,1.5,3.3,3.3v8.7
				C219.2,257,217.7,258.5,215.9,258.5z"/>
			<path class="st1" d="M215.9,282.8L215.9,282.8c-1.8,0-3.3-1.5-3.3-3.3v-8.7c0-1.8,1.5-3.3,3.3-3.3l0,0c1.8,0,3.3,1.5,3.3,3.3v8.7
				C219.2,281.3,217.7,282.8,215.9,282.8z"/>
		</g>
		<g>
			<path class="st1" d="M231.7,139.7L231.7,139.7c-1.8,0-3.3-1.5-3.3-3.3v-8.7c0-1.8,1.5-3.3,3.3-3.3l0,0c1.8,0,3.3,1.5,3.3,3.3v8.7
				C235,138.2,233.5,139.7,231.7,139.7z"/>
			<path class="st1" d="M231.7,164L231.7,164c-1.8,0-3.3-1.5-3.3-3.3V152c0-1.8,1.5-3.3,3.3-3.3l0,0c1.8,0,3.3,1.5,3.3,3.3v8.7
				C235,162.5,233.5,164,231.7,164z"/>
			<path class="st1" d="M231.7,187.3L231.7,187.3c-1.8,0-3.3-1.5-3.3-3.3v-8.7c0-1.8,1.5-3.3,3.3-3.3l0,0c1.8,0,3.3,1.5,3.3,3.3v8.7
				C235,185.8,233.5,187.3,231.7,187.3z"/>
			<path class="st1" d="M231.7,211.6L231.7,211.6c-1.8,0-3.3-1.5-3.3-3.3v-8.7c0-1.8,1.5-3.3,3.3-3.3l0,0c1.8,0,3.3,1.5,3.3,3.3v8.7
				C235,210.1,233.5,211.6,231.7,211.6z"/>
			<path class="st1" d="M231.7,235.1L231.7,235.1c-1.8,0-3.3-1.5-3.3-3.3v-8.7c0-1.8,1.5-3.3,3.3-3.3l0,0c1.8,0,3.3,1.5,3.3,3.3v8.7
				C235,233.6,233.5,235.1,231.7,235.1z"/>
			<path class="st1" d="M231.7,258.5L231.7,258.5c-1.8,0-3.3-1.5-3.3-3.3v-8.7c0-1.8,1.5-3.3,3.3-3.3l0,0c1.8,0,3.3,1.5,3.3,3.3v8.7
				C235,257,233.5,258.5,231.7,258.5z"/>
			<path class="st1" d="M231.7,282.8L231.7,282.8c-1.8,0-3.3-1.5-3.3-3.3v-8.7c0-1.8,1.5-3.3,3.3-3.3l0,0c1.8,0,3.3,1.5,3.3,3.3v8.7
				C235,281.3,233.5,282.8,231.7,282.8z"/>
		</g>
		<path class="st1" d="M247.3,109.2h-7.9V96.4c0-2.1-1.7-3.8-3.8-3.8h-23.9c-2.1,0-3.8,1.7-3.8,3.8v12.8h-8.1
			c-2.1,0-3.8,1.7-3.8,3.8v186.6c0,2.1,1.7,3.8,3.8,3.8h47.5c2.1,0,3.8-1.7,3.8-3.8V112.9C251,110.9,249.3,109.2,247.3,109.2z
			 M215.2,100h17.1v9.1h-17.1V100z M244.3,295.6l-41.5,0V116.1l41.5,0V295.6z"/>
	</g>
</g>
</svg>
