<?xml version="1.0" encoding="iso-8859-1"?>
<!-- Generator: Adobe Illustrator 21.1.0, SVG Export Plug-In . SVG Version: 6.00 Build 0)  -->
<svg version="1.1" id="Layer_1" xmlns="http://www.w3.org/2000/svg" xmlns:xlink="http://www.w3.org/1999/xlink" x="0px" y="0px"
	 viewBox="0 0 272 315" style="enable-background:new 0 0 272 315;" xml:space="preserve">
<g>
	
		<linearGradient id="SVGID_1_" gradientUnits="userSpaceOnUse" x1="136.05" y1="-224" x2="136.05" y2="87" gradientTransform="matrix(1 0 0 1 0 226)">
		<stop  offset="1.006390e-07" style="stop-color:#AEE3FD"/>
		<stop  offset="1" style="stop-color:#AEE3FD;stop-opacity:0"/>
	</linearGradient>
	<path style="fill:url(#SVGID_1_);" d="M270.2,137.6c-0.9-59.3-38.3-109.5-90.1-128v0.1c0.1,1.4,1.1,8.6,3.6,13.4s1.8,8.5,1.8,8.5
		c2,0.8,20.5,2.1,17.7,1.9s-14.4,1.1-14.4,1.1c1.4,2.1,5.1,1.9,5.1,1.9v0.9c-4.9,0.1-10.1-0.3-11.8-1.4s-4.9-1.3-4.9-1.3
		s-0.1-1.4,1.5-2.1c1.6-0.7,2-4.2,1.5-5.3s-3.1-5.4-2.9-10.7c0.1-3.6,1-6.2,1.6-7.6c-13.5-4.5-27.9-7-42.8-7
		C62,2,1.9,63.7,1.9,139.8c0,2.4,0.1,4.9,0.2,7.3V313h268.1V137.6L270.2,137.6z M147.6,34.2h-24.5c0,0-5.4-0.5-5.8-5.8
		c-0.6-6.4,4.5-7.7,6.3-7.5c0,0-1.1-8.6,5.4-11.3c5.7-2.3,11.1,0.7,11.1,0.7s4.8,2.5,4.7,7.5c0,0,7,0.3,7.8,5.5
		C153.5,28.5,151.5,32.7,147.6,34.2z M222.5,75.5H198c0,0-5.4-0.5-5.8-5.8c-0.6-6.4,4.5-7.7,6.3-7.5c0,0-1.1-8.6,5.4-11.3
		c5.7-2.3,11.1,0.7,11.1,0.7s4.8,2.5,4.7,7.5c0,0,7,0.3,7.8,5.5S226.5,74,222.5,75.5z"/>
	<g>
		<g>
			<g>
				<g>
					<path style="fill:#3E3E56;" d="M148.3,155.8L148.3,155.8c-2.1,0-3.9-1.7-3.9-3.9v-8.5c0-2.1,1.7-3.9,3.9-3.9l0,0
						c2.1,0,3.9,1.7,3.9,3.9v8.5C152.1,154.1,150.4,155.8,148.3,155.8z"/>
					<path style="fill:#3E3E56;" d="M148.3,180.6L148.3,180.6c-2.1,0-3.9-1.7-3.9-3.9v-8.5c0-2.1,1.7-3.9,3.9-3.9l0,0
						c2.1,0,3.9,1.7,3.9,3.9v8.5C152.1,178.8,150.4,180.6,148.3,180.6z"/>
					<path style="fill:#3E3E56;" d="M148.3,205.3L148.3,205.3c-2.1,0-3.9-1.7-3.9-3.9V193c0-2.1,1.7-3.9,3.9-3.9l0,0
						c2.1,0,3.9,1.7,3.9,3.9v8.5C152.1,203.6,150.4,205.3,148.3,205.3z"/>
					<path style="fill:#3E3E56;" d="M148.3,230.1L148.3,230.1c-2.1,0-3.9-1.7-3.9-3.9v-8.5c0-2.1,1.7-3.9,3.9-3.9l0,0
						c2.1,0,3.9,1.7,3.9,3.9v8.5C152.1,228.3,150.4,230.1,148.3,230.1z"/>
					<path style="fill:#3E3E56;" d="M148.3,253.8L148.3,253.8c-2.1,0-3.9-1.7-3.9-3.9v-8.5c0-2.1,1.7-3.9,3.9-3.9l0,0
						c2.1,0,3.9,1.7,3.9,3.9v8.5C152.1,252.1,150.4,253.8,148.3,253.8z"/>
				</g>
				<g>
					<path style="fill:#3E3E56;" d="M173.4,155.7L173.4,155.7c-2.1,0-3.9-1.7-3.9-3.9v-8.5c0-2.1,1.7-3.9,3.9-3.9l0,0
						c2.1,0,3.9,1.7,3.9,3.9v8.5C177.2,154,175.5,155.7,173.4,155.7z"/>
					<path style="fill:#3E3E56;" d="M173.4,180.5L173.4,180.5c-2.1,0-3.9-1.7-3.9-3.9v-8.5c0-2.1,1.7-3.9,3.9-3.9l0,0
						c2.1,0,3.9,1.7,3.9,3.9v8.5C177.2,178.7,175.5,180.5,173.4,180.5z"/>
					<path style="fill:#3E3E56;" d="M173.4,205.2L173.4,205.2c-2.1,0-3.9-1.7-3.9-3.9v-8.5c0-2.1,1.7-3.9,3.9-3.9l0,0
						c2.1,0,3.9,1.7,3.9,3.9v8.5C177.2,203.5,175.5,205.2,173.4,205.2z"/>
					<path style="fill:#3E3E56;" d="M173.4,230L173.4,230c-2.1,0-3.9-1.7-3.9-3.9v-8.5c0-2.1,1.7-3.9,3.9-3.9l0,0
						c2.1,0,3.9,1.7,3.9,3.9v8.5C177.2,228.2,175.5,230,173.4,230z"/>
					<path style="fill:#3E3E56;" d="M173.4,253.7L173.4,253.7c-2.1,0-3.9-1.7-3.9-3.9v-8.5c0-2.1,1.7-3.9,3.9-3.9l0,0
						c2.1,0,3.9,1.7,3.9,3.9v8.5C177.2,252,175.5,253.7,173.4,253.7z"/>
				</g>
				<g>
					<path style="fill:#3E3E56;" d="M197.4,155.7L197.4,155.7c-2.1,0-3.9-1.7-3.9-3.9v-8.5c0-2.1,1.7-3.9,3.9-3.9l0,0
						c2.1,0,3.9,1.7,3.9,3.9v8.5C201.2,154,199.5,155.7,197.4,155.7z"/>
					<path style="fill:#3E3E56;" d="M197.4,180.5L197.4,180.5c-2.1,0-3.9-1.7-3.9-3.9v-8.5c0-2.1,1.7-3.9,3.9-3.9l0,0
						c2.1,0,3.9,1.7,3.9,3.9v8.5C201.2,178.7,199.5,180.5,197.4,180.5z"/>
					<path style="fill:#3E3E56;" d="M197.4,205.2L197.4,205.2c-2.1,0-3.9-1.7-3.9-3.9v-8.5c0-2.1,1.7-3.9,3.9-3.9l0,0
						c2.1,0,3.9,1.7,3.9,3.9v8.5C201.2,203.5,199.5,205.2,197.4,205.2z"/>
					<path style="fill:#3E3E56;" d="M197.4,230L197.4,230c-2.1,0-3.9-1.7-3.9-3.9v-8.5c0-2.1,1.7-3.9,3.9-3.9l0,0
						c2.1,0,3.9,1.7,3.9,3.9v8.5C201.2,228.2,199.5,230,197.4,230z"/>
					<path style="fill:#3E3E56;" d="M197.4,253.7L197.4,253.7c-2.1,0-3.9-1.7-3.9-3.9v-8.5c0-2.1,1.7-3.9,3.9-3.9l0,0
						c2.1,0,3.9,1.7,3.9,3.9v8.5C201.2,252,199.5,253.7,197.4,253.7z"/>
					<path style="fill:#3E3E56;" d="M193.5,274.6v-8.5c0-2.1,1.7-3.9,3.9-3.9l0,0c2.1,0,3.9,1.7,3.9,3.9"/>
				</g>
			</g>
			<path style="fill:#3E3E56;" d="M132.8,269.3V131.5H214v137.8h8.6V131c0-4.2-3.4-7.7-7.7-7.7h-83c-4.2,0-7.7,3.4-7.7,7.7v138.3
				H132.8z"/>
		</g>
		<g>
			<g>
				<path style="fill:#3E3E56;" d="M58.1,90.1L58.1,90.1c-2.1,0-3.9-1.7-3.9-3.9v-8.5c0-2.1,1.7-3.9,3.9-3.9l0,0
					c2.1,0,3.9,1.7,3.9,3.9v8.5C62,88.3,60.2,90.1,58.1,90.1z"/>
				<path style="fill:#3E3E56;" d="M58.1,114.8L58.1,114.8c-2.1,0-3.9-1.7-3.9-3.9v-8.5c0-2.1,1.7-3.9,3.9-3.9l0,0
					c2.1,0,3.9,1.7,3.9,3.9v8.5C62,113.1,60.2,114.8,58.1,114.8z"/>
				<path style="fill:#3E3E56;" d="M58.1,139.6L58.1,139.6c-2.1,0-3.9-1.7-3.9-3.9v-8.5c0-2.1,1.7-3.9,3.9-3.9l0,0
					c2.1,0,3.9,1.7,3.9,3.9v8.5C62,137.8,60.2,139.6,58.1,139.6z"/>
				<path style="fill:#3E3E56;" d="M58.1,164.3L58.1,164.3c-2.1,0-3.9-1.7-3.9-3.9V152c0-2.1,1.7-3.9,3.9-3.9l0,0
					c2.1,0,3.9,1.7,3.9,3.9v8.5C62,162.6,60.2,164.3,58.1,164.3z"/>
				<path style="fill:#3E3E56;" d="M58.1,188.1L58.1,188.1c-2.1,0-3.9-1.7-3.9-3.9v-8.5c0-2.1,1.7-3.9,3.9-3.9l0,0
					c2.1,0,3.9,1.7,3.9,3.9v8.5C62,186.3,60.2,188.1,58.1,188.1z"/>
				<path style="fill:#3E3E56;" d="M58.1,212.8L58.1,212.8c-2.1,0-3.9-1.7-3.9-3.9v-8.5c0-2.1,1.7-3.9,3.9-3.9l0,0
					c2.1,0,3.9,1.7,3.9,3.9v8.5C62,211.1,60.2,212.8,58.1,212.8z"/>
				<path style="fill:#3E3E56;" d="M58.1,237.6L58.1,237.6c-2.1,0-3.9-1.7-3.9-3.9v-8.5c0-2.1,1.7-3.9,3.9-3.9l0,0
					c2.1,0,3.9,1.7,3.9,3.9v8.5C62,235.8,60.2,237.6,58.1,237.6z"/>
				<path style="fill:#3E3E56;" d="M58.1,262.3L58.1,262.3c-2.1,0-3.9-1.7-3.9-3.9V250c0-2.1,1.7-3.9,3.9-3.9l0,0
					c2.1,0,3.9,1.7,3.9,3.9v8.5C62,260.6,60.2,262.3,58.1,262.3z"/>
				<path style="fill:#3E3E56;" d="M58.1,286.9L58.1,286.9c-2.1,0-3.9-1.7-3.9-3.9v-8.5c0-2.1,1.7-3.9,3.9-3.9l0,0
					c2.1,0,3.9,1.7,3.9,3.9v8.5C62,285.2,60.2,286.9,58.1,286.9z"/>
			</g>
			<g>
				<path style="fill:#3E3E56;" d="M82.9,90.1L82.9,90.1c-2.1,0-3.9-1.7-3.9-3.9v-8.5c0-2.1,1.7-3.9,3.9-3.9l0,0
					c2.1,0,3.9,1.7,3.9,3.9v8.5C86.7,88.3,85,90.1,82.9,90.1z"/>
				<path style="fill:#3E3E56;" d="M82.9,114.8L82.9,114.8c-2.1,0-3.9-1.7-3.9-3.9v-8.5c0-2.1,1.7-3.9,3.9-3.9l0,0
					c2.1,0,3.9,1.7,3.9,3.9v8.5C86.7,113.1,85,114.8,82.9,114.8z"/>
				<path style="fill:#3E3E56;" d="M82.9,139.6L82.9,139.6c-2.1,0-3.9-1.7-3.9-3.9v-8.5c0-2.1,1.7-3.9,3.9-3.9l0,0
					c2.1,0,3.9,1.7,3.9,3.9v8.5C86.7,137.8,85,139.6,82.9,139.6z"/>
				<path style="fill:#3E3E56;" d="M82.9,164.3L82.9,164.3c-2.1,0-3.9-1.7-3.9-3.9V152c0-2.1,1.7-3.9,3.9-3.9l0,0
					c2.1,0,3.9,1.7,3.9,3.9v8.5C86.7,162.6,85,164.3,82.9,164.3z"/>
				<path style="fill:#3E3E56;" d="M82.9,188.1L82.9,188.1c-2.1,0-3.9-1.7-3.9-3.9v-8.5c0-2.1,1.7-3.9,3.9-3.9l0,0
					c2.1,0,3.9,1.7,3.9,3.9v8.5C86.7,186.3,85,188.1,82.9,188.1z"/>
				<path style="fill:#3E3E56;" d="M82.9,212.8L82.9,212.8c-2.1,0-3.9-1.7-3.9-3.9v-8.5c0-2.1,1.7-3.9,3.9-3.9l0,0
					c2.1,0,3.9,1.7,3.9,3.9v8.5C86.7,211.1,85,212.8,82.9,212.8z"/>
				<path style="fill:#3E3E56;" d="M82.9,237.6L82.9,237.6c-2.1,0-3.9-1.7-3.9-3.9v-8.5c0-2.1,1.7-3.9,3.9-3.9l0,0
					c2.1,0,3.9,1.7,3.9,3.9v8.5C86.7,235.8,85,237.6,82.9,237.6z"/>
				<path style="fill:#3E3E56;" d="M82.9,262.3L82.9,262.3c-2.1,0-3.9-1.7-3.9-3.9V250c0-2.1,1.7-3.9,3.9-3.9l0,0
					c2.1,0,3.9,1.7,3.9,3.9v8.5C86.7,260.6,85,262.3,82.9,262.3z"/>
			</g>
			<g>
				<path style="fill:#3E3E56;" d="M107.6,90.1L107.6,90.1c-2.1,0-3.9-1.7-3.9-3.9v-8.5c0-2.1,1.7-3.9,3.9-3.9l0,0
					c2.1,0,3.9,1.7,3.9,3.9v8.5C111.5,88.3,109.7,90.1,107.6,90.1z"/>
				<path style="fill:#3E3E56;" d="M107.6,114.8L107.6,114.8c-2.1,0-3.9-1.7-3.9-3.9v-8.5c0-2.1,1.7-3.9,3.9-3.9l0,0
					c2.1,0,3.9,1.7,3.9,3.9v8.5C111.5,113.1,109.7,114.8,107.6,114.8z"/>
				<path style="fill:#3E3E56;" d="M107.6,139.6L107.6,139.6c-2.1,0-3.9-1.7-3.9-3.9v-8.5c0-2.1,1.7-3.9,3.9-3.9l0,0
					c2.1,0,3.9,1.7,3.9,3.9v8.5C111.5,137.8,109.7,139.6,107.6,139.6z"/>
				<path style="fill:#3E3E56;" d="M107.6,164.3L107.6,164.3c-2.1,0-3.9-1.7-3.9-3.9V152c0-2.1,1.7-3.9,3.9-3.9l0,0
					c2.1,0,3.9,1.7,3.9,3.9v8.5C111.5,162.6,109.7,164.3,107.6,164.3z"/>
				<path style="fill:#3E3E56;" d="M107.6,188.1L107.6,188.1c-2.1,0-3.9-1.7-3.9-3.9v-8.5c0-2.1,1.7-3.9,3.9-3.9l0,0
					c2.1,0,3.9,1.7,3.9,3.9v8.5C111.5,186.3,109.7,188.1,107.6,188.1z"/>
				<path style="fill:#3E3E56;" d="M107.6,212.8L107.6,212.8c-2.1,0-3.9-1.7-3.9-3.9v-8.5c0-2.1,1.7-3.9,3.9-3.9l0,0
					c2.1,0,3.9,1.7,3.9,3.9v8.5C111.5,211.1,109.7,212.8,107.6,212.8z"/>
				<path style="fill:#3E3E56;" d="M107.6,237.6L107.6,237.6c-2.1,0-3.9-1.7-3.9-3.9v-8.5c0-2.1,1.7-3.9,3.9-3.9l0,0
					c2.1,0,3.9,1.7,3.9,3.9v8.5C111.5,235.8,109.7,237.6,107.6,237.6z"/>
			</g>
			<g>
				<path style="fill:#3E3E56;" d="M132.2,90.1L132.2,90.1c-2.1,0-3.9-1.7-3.9-3.9v-8.5c0-2.1,1.7-3.9,3.9-3.9l0,0
					c2.1,0,3.9,1.7,3.9,3.9v8.5C136.1,88.3,134.3,90.1,132.2,90.1z"/>
				<path style="fill:#3E3E56;" d="M132.2,114.8L132.2,114.8c-2.1,0-3.9-1.7-3.9-3.9v-8.5c0-2.1,1.7-3.9,3.9-3.9l0,0
					c2.1,0,3.9,1.7,3.9,3.9v8.5C136.1,113.1,134.3,114.8,132.2,114.8z"/>
			</g>
			<path style="fill:#3E3E56;" d="M146.2,298.1h-101V65h103.3v61.7h8.1V64.8c0-3.8-3.1-6.8-6.8-6.8H44.4c-3.8,0-6.8,3.1-6.8,6.8
				v229.7c0,3.8,3.1,6.8,6.8,6.8h101.8L146.2,298.1L146.2,298.1z"/>
		</g>
		<g>
			<path style="fill:#3E3E56;" d="M238.3,295.1h16.9c2.3,0,4.3,1.9,4.3,4.3l0,0c0,2.3-1.9,4.3-4.3,4.3H17.5c-2.3,0-4.3-1.9-4.3-4.3
				l0,0c0-2.3,1.9-4.3,4.3-4.3H238.3"/>
			<path style="fill:#3E3E56;" d="M144.5,258.3c-6,0-11.4,2.6-15.1,6.8c-3.3-10.8-13.7-18.8-26.1-18.8c-15,0-27.2,11.6-27.2,26v0.1
				c-0.6-0.1-1.3-0.1-1.9-0.1c-12.6,0-22.8,10-22.9,22.4c2.8,1,6,2.5,6.9,1.6c0.2-0.2,0.5-0.5,0.7-0.7c0.2-9.2,7.8-16.7,17.2-16.7
				c1.1,0,2.8,0.2,4.2,0.4c1.2,0.1,2.3-0.8,2.3-2c0-1.7,0.1-3.8,0.1-3.8c0.4-10.9,9-19.3,20.5-19.3c11.7,0,21.1,9.1,21.2,20.3
				c0,3.9,4.3,4.1,5.8,0.6c3-5.2,8.5-8.8,15-8.8c4.3,0,8.3,1.6,11.3,4.2c1.2-1.5,3.1-2.1,5.4-2.2
				C158.4,262.4,151.9,258.3,144.5,258.3z"/>
			<path style="fill:#3E3E56;" d="M150.6,287.2c0-9.6,7.8-17.5,17.5-17.5c7,0,13,4.8,15.8,10c0,0,3.2,9,8.2,1.8
				c3.4-6.4,10.1-10.8,17.9-10.8c11.2,0,20.2,9.1,20.2,20.2c0,1.5-0.2,2.9-0.5,4.3c2.8,0,5.5,0,8.3,0c0.2-1.4,0.3-2.8,0.3-4.3
				c0-15.7-12.7-28.4-28.4-28.4c-8.8,0-16.6,4-21.8,10.2c-4.5-6.2-11.8-10.3-20-10.3c-13.6,0-24.6,11-24.6,24.6
				c0,2.8,0.5,5.6,1.4,8.1c2.6,0,5.2,0,7.8,0C151.4,292.9,150.6,290.1,150.6,287.2z"/>
		</g>
	</g>
</g>
</svg>
